<svg width="500" height="500" viewBox="0 0 500 500" fill="none" xmlns="http://www.w3.org/2000/svg">
<path d="M245.18 423.71C352.262 423.71 439.07 418.642 439.07 412.39C439.07 406.138 352.262 401.07 245.18 401.07C138.098 401.07 51.29 406.138 51.29 412.39C51.29 418.642 138.098 423.71 245.18 423.71Z" fill="#F5F5F5"/>
<path d="M375.18 410.97H370.39L369.34 337.89H376.23L375.18 410.97Z" fill="#263238"/>
<path opacity="0.5" d="M375.18 410.97H370.39L369.34 337.89H376.23L375.18 410.97Z" fill="white"/>
<path d="M332.88 410.97H328.08L327.04 337.89H333.93L332.88 410.97Z" fill="#263238"/>
<path opacity="0.5" d="M332.88 410.97H328.08L327.04 337.89H333.93L332.88 410.97Z" fill="white"/>
<path d="M323.06 410.97H318.27L317.22 337.89H324.11L323.06 410.97Z" fill="#263238"/>
<path opacity="0.5" d="M323.06 410.97H318.27L317.22 337.89H324.11L323.06 410.97Z" fill="white"/>
<path d="M280.76 410.97H275.96L274.92 337.89H281.81L280.76 410.97Z" fill="#263238"/>
<path opacity="0.5" d="M280.76 410.97H275.96L274.92 337.89H281.81L280.76 410.97Z" fill="white"/>
<path d="M352.2 339.57H274.45C273.608 339.57 272.775 339.404 271.997 339.082C271.219 338.76 270.513 338.288 269.917 337.693C269.322 337.097 268.85 336.391 268.528 335.613C268.206 334.835 268.04 334.002 268.04 333.16V324.62C268.043 322.922 268.719 321.294 269.921 320.094C271.123 318.894 272.752 318.22 274.45 318.22H343.29L349.22 261.8C349.623 258.496 351.204 255.447 353.673 253.214C356.141 250.981 359.332 249.712 362.66 249.64H391.55L384.65 270.7L378.35 317.87L373.92 331.05L352.2 339.57Z" fill="#0077B6"/>
<path opacity="0.2" d="M352.2 339.57H274.45C273.608 339.57 272.775 339.404 271.997 339.082C271.219 338.76 270.513 338.288 269.917 337.693C269.322 337.097 268.85 336.391 268.528 335.613C268.206 334.835 268.04 334.002 268.04 333.16V324.62C268.043 322.922 268.719 321.294 269.921 320.094C271.123 318.894 272.752 318.22 274.45 318.22H343.29L349.22 261.8C349.623 258.496 351.204 255.447 353.673 253.214C356.141 250.981 359.332 249.712 362.66 249.64H391.55L384.65 270.7L378.35 317.87L373.92 331.05L352.2 339.57Z" fill="black"/>
<path d="M393.94 249.64H388.17C384.843 249.712 381.654 250.981 379.187 253.215C376.72 255.448 375.141 258.496 374.74 261.8L368.81 318.22H326.39C324.693 318.223 323.067 318.898 321.867 320.097C320.668 321.297 319.993 322.923 319.99 324.62V333.16C319.99 334.858 320.664 336.487 321.864 337.689C323.064 338.891 324.692 339.567 326.39 339.57H377.71C379.658 339.571 381.538 338.85 382.986 337.546C384.434 336.242 385.347 334.448 385.55 332.51L392.27 268.57C394.961 268.515 397.534 267.452 399.478 265.591C401.423 263.73 402.598 261.206 402.77 258.52C402.792 257.352 402.578 256.192 402.143 255.108C401.707 254.024 401.058 253.039 400.235 252.211C399.411 251.382 398.43 250.728 397.348 250.287C396.267 249.845 395.108 249.625 393.94 249.64Z" fill="#0077B6"/>
<path d="M282.42 380.78L285.75 402.54L292.62 401.95L291.66 379.99L282.42 380.78Z" fill="#EBB376"/>
<path d="M292.86 393.44C292.86 393.44 293.19 399.06 294.54 401.86C295.89 404.66 297.76 408.38 293.19 408.79C290.49 409.03 285.77 410.15 280.6 410.65C277.03 410.99 272.14 410.65 271.97 408.76C271.77 406.57 284.43 401.98 284.38 399.87C284.33 397.76 283.76 394.12 283.76 394.12L292.86 393.44Z" fill="#263238"/>
<path opacity="0.1" d="M292.86 393.44C292.86 393.44 293.19 399.06 294.54 401.86C295.89 404.66 297.76 408.38 293.19 408.79C290.49 409.03 285.77 410.15 280.6 410.65C277.03 410.99 272.14 410.65 271.97 408.76C271.77 406.57 284.43 401.98 284.38 399.87C284.33 397.76 283.76 394.12 283.76 394.12L292.86 393.44Z" fill="white"/>
<path d="M327.19 277.27L325.33 292.75C325.33 292.75 272.5 297.39 269.49 310.6C266.64 323.16 282.23 386.93 282.23 386.93L292.78 385.88C292.78 385.88 294.25 336.57 289.63 318.98C289.63 318.98 329.79 318.68 343.18 318.98C349.18 319.12 364.57 318.92 360.76 301.42C356.42 281.42 351.83 277.27 351.83 277.27L351.67 268.51H327.67L327.19 277.27Z" fill="#0077B6"/>
<path opacity="0.2" d="M327.19 277.27L325.33 292.75C325.33 292.75 272.5 297.39 269.49 310.6C266.64 323.16 282.23 386.93 282.23 386.93L292.78 385.88C292.78 385.88 294.25 336.57 289.63 318.98C289.63 318.98 329.79 318.68 343.18 318.98C349.18 319.12 364.57 318.92 360.76 301.42C356.42 281.42 351.83 277.27 351.83 277.27L351.67 268.51H327.67L327.19 277.27Z" fill="white"/>
<path d="M281.21 387.2L282.09 389.79C282.173 390.023 282.331 390.222 282.539 390.356C282.747 390.49 282.993 390.551 283.24 390.53L292.45 389.68C292.708 389.657 292.949 389.545 293.132 389.362C293.315 389.179 293.427 388.938 293.45 388.68L293.62 386C293.628 385.841 293.601 385.683 293.543 385.535C293.484 385.387 293.394 385.254 293.279 385.144C293.165 385.034 293.028 384.95 292.878 384.898C292.728 384.845 292.568 384.825 292.41 384.84L282.15 385.78C281.988 385.796 281.831 385.849 281.692 385.933C281.552 386.017 281.433 386.131 281.343 386.267C281.254 386.403 281.195 386.557 281.172 386.719C281.149 386.88 281.162 387.044 281.21 387.2Z" fill="#0077B6"/>
<path opacity="0.6" d="M281.21 387.2L282.09 389.79C282.173 390.023 282.331 390.222 282.539 390.356C282.747 390.49 282.993 390.551 283.24 390.53L292.45 389.68C292.708 389.657 292.949 389.545 293.132 389.362C293.315 389.179 293.427 388.938 293.45 388.68L293.62 386C293.628 385.841 293.601 385.683 293.543 385.535C293.484 385.387 293.394 385.254 293.279 385.144C293.165 385.034 293.028 384.95 292.878 384.898C292.728 384.845 292.568 384.825 292.41 384.84L282.15 385.78C281.988 385.796 281.831 385.849 281.692 385.933C281.552 386.017 281.433 386.131 281.343 386.267C281.254 386.403 281.195 386.557 281.172 386.719C281.149 386.88 281.162 387.044 281.21 387.2Z" fill="white"/>
<path d="M302.66 380.34L304.13 402.31H311.02L311.94 380.34H302.66Z" fill="#EBB376"/>
<path d="M311.81 395.65C311.81 395.65 311.63 401.28 312.73 404.19C313.83 407.1 315.36 410.97 310.73 410.97C308.03 410.97 303.24 411.03 298.13 410.65C294.55 410.39 289.6 410.97 289.6 409.04C289.6 406.84 302.99 403.27 303.12 401.17C303.25 399.07 303.12 395.53 303.12 395.53L311.81 395.65Z" fill="#263238"/>
<path d="M335.46 277.27L333.77 292.75C333.77 292.75 300.91 297.22 295.64 305.09C290.37 312.96 302.75 390.4 302.75 390.4H311.94C318.5 347.4 315.09 318.92 315.09 318.92H356.3C382.55 318.92 359.19 277.27 359.19 277.27L359.29 268.07L335 269.47L335.46 277.27Z" fill="#0077B6"/>
<path opacity="0.3" d="M335.46 277.27L333.77 292.75C333.77 292.75 300.91 297.22 295.64 305.09C290.37 312.96 302.75 390.4 302.75 390.4H311.94C318.5 347.4 315.09 318.92 315.09 318.92H356.3C382.55 318.92 359.19 277.27 359.19 277.27L359.29 268.07L335 269.47L335.46 277.27Z" fill="white"/>
<path d="M301.07 388.9L301.76 391.73C301.813 391.954 301.941 392.152 302.123 392.293C302.305 392.433 302.53 392.506 302.76 392.5H311.91C312.143 392.505 312.37 392.429 312.552 392.285C312.735 392.141 312.861 391.937 312.91 391.71L313.52 388.87C313.554 388.722 313.553 388.568 313.518 388.42C313.483 388.271 313.414 388.133 313.318 388.016C313.222 387.898 313.1 387.804 312.961 387.741C312.823 387.677 312.672 387.646 312.52 387.65H302.06C301.906 387.647 301.752 387.679 301.613 387.745C301.473 387.811 301.35 387.908 301.254 388.029C301.158 388.15 301.092 388.292 301.06 388.443C301.028 388.594 301.031 388.75 301.07 388.9Z" fill="#0077B6"/>
<path opacity="0.6" d="M301.07 388.9L301.76 391.73C301.813 391.954 301.941 392.152 302.123 392.293C302.305 392.433 302.53 392.506 302.76 392.5H311.91C312.143 392.505 312.37 392.429 312.552 392.285C312.735 392.141 312.861 391.937 312.91 391.71L313.52 388.87C313.554 388.722 313.553 388.568 313.518 388.42C313.483 388.271 313.414 388.133 313.318 388.016C313.222 387.898 313.1 387.804 312.961 387.741C312.823 387.677 312.672 387.646 312.52 387.65H302.06C301.906 387.647 301.752 387.679 301.613 387.745C301.473 387.811 301.35 387.908 301.254 388.029C301.158 388.15 301.092 388.292 301.06 388.443C301.028 388.594 301.031 388.75 301.07 388.9Z" fill="white"/>
<path d="M288.27 268.44L280.83 269.89L273.83 267.84C272.86 267.708 271.873 267.828 270.963 268.187C270.052 268.545 269.249 269.132 268.63 269.89C267.616 271.101 267.064 272.631 267.07 274.21V274.48H281.46L289.27 273.43L288.27 268.44Z" fill="#EBB376"/>
<path d="M328.47 225.41C328.458 225.067 328.346 224.736 328.146 224.457C327.947 224.178 327.67 223.964 327.349 223.842C327.029 223.721 326.679 223.696 326.345 223.772C326.011 223.848 325.706 224.022 325.47 224.27C323.07 226.63 319.62 229.4 318.01 244.27C315.94 263.42 284.01 268.17 284.01 268.17L285.53 275.17C285.53 275.17 309.05 275.97 318.79 265.81C331.39 252.76 329.55 233.17 328.47 225.41Z" fill="#0077B6"/>
<path opacity="0.2" d="M328.47 225.41C328.458 225.067 328.346 224.736 328.146 224.457C327.947 224.178 327.67 223.964 327.349 223.842C327.029 223.721 326.679 223.696 326.345 223.772C326.011 223.848 325.706 224.022 325.47 224.27C323.07 226.63 319.62 229.4 318.01 244.27C315.94 263.42 284.01 268.17 284.01 268.17L285.53 275.17C285.53 275.17 309.05 275.97 318.79 265.81C331.39 252.76 329.55 233.17 328.47 225.41Z" fill="white"/>
<path d="M357.09 194.5C354.2 175.13 337.89 182.11 337.89 182.11C327.35 185.91 330.89 199 330.89 206.11C330.89 213.22 329.99 215.68 329.99 215.68C331.21 215.41 332.34 215.18 333.43 214.96L333.81 212.73L334.47 214.73C343.33 213.04 348.11 213.06 350.69 213.6C351.416 212.279 351.938 210.857 352.24 209.38C352.24 209.38 353.5 210.2 352.24 214.08C353.77 214.77 353.7 215.66 353.7 215.66C353.7 215.66 360 213.87 357.09 194.5Z" fill="#263238"/>
<path d="M367.11 223.16L329 222.71C328.11 222.696 327.244 222.999 326.557 223.565C325.87 224.132 325.407 224.924 325.25 225.8C320.75 250.68 323.82 249.8 323.82 249.8L325.74 280.25H330C331.246 280.251 332.455 279.82 333.419 279.031C334.384 278.241 335.045 277.142 335.29 275.92L335.72 273.78L336.85 276.78C337.234 277.799 337.917 278.677 338.809 279.3C339.702 279.923 340.762 280.261 341.85 280.27H361.3C359.04 256.89 366.45 234.33 369.03 225.9C369.131 225.591 369.159 225.264 369.111 224.942C369.064 224.621 368.942 224.315 368.756 224.05C368.569 223.784 368.324 223.565 368.038 223.41C367.752 223.256 367.435 223.17 367.11 223.16Z" fill="#0077B6"/>
<path opacity="0.4" d="M367.11 223.16L329 222.71C328.11 222.696 327.244 222.999 326.557 223.565C325.87 224.132 325.407 224.924 325.25 225.8C320.75 250.68 323.82 249.8 323.82 249.8L325.74 280.25H330C331.246 280.251 332.455 279.82 333.419 279.031C334.384 278.241 335.045 277.142 335.29 275.92L335.72 273.78L336.85 276.78C337.234 277.799 337.917 278.677 338.809 279.3C339.702 279.923 340.762 280.261 341.85 280.27H361.3C359.04 256.89 366.45 234.33 369.03 225.9C369.131 225.591 369.159 225.264 369.111 224.942C369.064 224.621 368.942 224.315 368.756 224.05C368.569 223.784 368.324 223.565 368.038 223.41C367.752 223.256 367.435 223.17 367.11 223.16Z" fill="white"/>
<path d="M283 268.06L284.41 275.44C284.46 275.692 284.598 275.918 284.8 276.078C285.001 276.237 285.253 276.32 285.51 276.31L286.93 276.25C287.079 276.243 287.224 276.205 287.357 276.139C287.49 276.072 287.608 275.978 287.702 275.863C287.796 275.748 287.866 275.614 287.905 275.471C287.944 275.327 287.953 275.177 287.93 275.03L286.76 267.17C286.738 267.015 286.683 266.867 286.598 266.736C286.513 266.605 286.4 266.494 286.268 266.411C286.135 266.328 285.986 266.275 285.831 266.256C285.676 266.237 285.519 266.252 285.37 266.3L283.7 266.84C283.457 266.926 283.253 267.097 283.124 267.32C282.996 267.544 282.952 267.807 283 268.06Z" fill="#0077B6"/>
<path opacity="0.6" d="M283 268.06L284.41 275.44C284.46 275.692 284.598 275.918 284.8 276.078C285.001 276.237 285.253 276.32 285.51 276.31L286.93 276.25C287.079 276.243 287.224 276.205 287.357 276.139C287.49 276.072 287.608 275.978 287.702 275.863C287.796 275.748 287.866 275.614 287.905 275.471C287.944 275.327 287.953 275.177 287.93 275.03L286.76 267.17C286.738 267.015 286.683 266.867 286.598 266.736C286.513 266.605 286.4 266.494 286.268 266.411C286.135 266.328 285.986 266.275 285.831 266.256C285.676 266.237 285.519 266.252 285.37 266.3L283.7 266.84C283.457 266.926 283.253 267.097 283.124 267.32C282.996 267.544 282.952 267.807 283 268.06Z" fill="white"/>
<path d="M349 204.66C348.44 209.76 348.26 219.02 352.06 222.06C352.06 222.06 350.61 227.21 340.84 228.17C333.9 225.11 336.48 223.41 336.48 223.41C341.95 221.56 342.48 217.46 341.24 213.65L349 204.66Z" fill="#EBB376"/>
<path opacity="0.1" d="M348.14 210.33L346.14 209.81L343.66 210.81L341.22 213.63C341.548 214.598 341.733 215.609 341.77 216.63C347.15 215.81 348.14 210.33 348.14 210.33Z" fill="black"/>
<path d="M352.58 193.39C352.82 201.8 353.11 205.39 349.28 210.03C343.51 217.03 333.13 215.53 330.37 207.36C327.89 200.01 327.9 187.5 335.78 183.42C337.517 182.514 339.457 182.068 341.415 182.123C343.374 182.178 345.285 182.733 346.969 183.735C348.652 184.737 350.051 186.153 351.033 187.848C352.015 189.543 352.548 191.461 352.58 193.42V193.39Z" fill="#EBB376"/>
<path d="M355.16 199.82C354.838 201.416 353.896 202.819 352.54 203.72C350.73 204.9 349.18 203.44 349.14 201.39C349.14 199.56 350.01 196.73 352.08 196.39C352.533 196.326 352.995 196.375 353.424 196.532C353.854 196.689 354.238 196.95 354.543 197.291C354.847 197.633 355.063 198.044 355.171 198.488C355.278 198.933 355.275 199.397 355.16 199.84V199.82Z" fill="#EBB376"/>
<path d="M334.57 198.56C334.11 200.166 333.438 201.703 332.57 203.13C332.937 203.348 333.348 203.483 333.773 203.524C334.198 203.566 334.627 203.513 335.03 203.37L334.57 198.56Z" fill="#D58745"/>
<path d="M340.22 193.75C340.279 193.732 340.331 193.697 340.37 193.65C340.431 193.587 340.464 193.503 340.464 193.415C340.464 193.327 340.431 193.243 340.37 193.18C339.92 192.748 339.372 192.432 338.773 192.258C338.174 192.084 337.542 192.057 336.93 192.18C336.844 192.203 336.771 192.259 336.726 192.336C336.682 192.413 336.669 192.504 336.69 192.59C336.711 192.675 336.765 192.748 336.84 192.793C336.915 192.838 337.005 192.851 337.09 192.83C337.598 192.741 338.121 192.773 338.614 192.924C339.108 193.075 339.559 193.341 339.93 193.7C339.972 193.729 340.019 193.748 340.069 193.757C340.12 193.766 340.171 193.763 340.22 193.75Z" fill="#2E353A"/>
<path d="M328.48 194.5C328.422 194.489 328.367 194.465 328.32 194.43C328.285 194.403 328.257 194.369 328.235 194.33C328.214 194.292 328.201 194.249 328.196 194.206C328.191 194.162 328.195 194.117 328.208 194.075C328.221 194.033 328.242 193.994 328.27 193.96C328.655 193.466 329.153 193.073 329.722 192.812C330.291 192.551 330.915 192.43 331.54 192.46C331.627 192.472 331.705 192.518 331.759 192.587C331.813 192.656 331.839 192.743 331.83 192.83C331.82 192.916 331.777 192.994 331.709 193.049C331.642 193.103 331.556 193.128 331.47 193.12C330.953 193.104 330.44 193.211 329.972 193.431C329.505 193.652 329.096 193.981 328.78 194.39C328.744 194.433 328.697 194.466 328.645 194.485C328.592 194.504 328.535 194.51 328.48 194.5Z" fill="#2E353A"/>
<path d="M339.27 197C339.34 197.68 339.02 198.26 338.57 198.31C338.12 198.36 337.72 197.84 337.66 197.15C337.6 196.46 337.91 195.89 338.35 195.84C338.79 195.79 339.21 196.31 339.27 197Z" fill="#2E353A"/>
<path d="M331.57 197.7C331.64 198.37 331.32 198.96 330.88 199C330.44 199.04 330.03 198.52 329.96 197.84C329.89 197.16 330.21 196.58 330.65 196.54C331.09 196.5 331.52 197 331.57 197.7Z" fill="#2E353A"/>
<path d="M330.85 196.55L329.18 196.23C329.18 196.23 330.13 197.43 330.85 196.55Z" fill="#2E353A"/>
<path d="M338.55 195.85L336.88 195.53C336.88 195.53 337.83 196.73 338.55 195.85Z" fill="#2E353A"/>
<path d="M334.61 206.07C335.635 206.198 336.676 206.09 337.653 205.756C338.63 205.422 339.518 204.869 340.25 204.14C340.25 204.14 342.75 208.69 336.01 209.43C335.903 208.192 335.413 207.018 334.61 206.07Z" fill="#263238"/>
<path d="M335.21 206.12L335.7 207.12C335.7 207.12 338.88 207.12 340.57 204.93C340.49 204.644 340.382 204.366 340.25 204.1C339.595 204.766 338.809 205.29 337.941 205.637C337.074 205.985 336.144 206.149 335.21 206.12Z" fill="white"/>
<path d="M336.47 209.36C339.77 208.88 340.63 207.36 340.7 206.14C337.44 207 336.65 208.63 336.47 209.36Z" fill="#DE5753"/>
<path d="M337.89 186.7C337.282 187.828 336.417 188.797 335.364 189.526C334.31 190.256 333.1 190.727 331.83 190.9C327.29 191.69 328.91 203.54 328.91 203.54C328.91 203.54 319.1 179.62 340.46 181.32L337.89 186.7Z" fill="#263238"/>
<path d="M341 181.78C340.645 181.699 340.276 181.693 339.919 181.762C339.561 181.832 339.221 181.975 338.922 182.183C338.623 182.391 338.37 182.659 338.18 182.97C337.991 183.281 337.868 183.629 337.82 183.99C337.57 185.99 337.99 188.49 341.22 189.53C346.93 191.36 346.4 197.4 346.4 197.4L347.4 192.92C347.4 192.92 347.72 199.32 350.94 198.56C354.16 197.8 354.48 191.76 354.48 191.76L349.16 183.62L341 181.78Z" fill="#263238"/>
<path d="M337.38 221.77C337.453 221.74 337.534 221.731 337.612 221.744C337.69 221.757 337.763 221.791 337.823 221.843C337.883 221.894 337.928 221.962 337.952 222.037C337.976 222.112 337.979 222.193 337.96 222.27C337.58 223.92 337.25 227.5 341.6 227.5C345.95 227.5 349.86 223.95 351.53 222.24C351.784 221.98 352.109 221.8 352.465 221.723C352.821 221.647 353.191 221.677 353.53 221.81L354.67 222.26C354.79 222.308 354.899 222.382 354.987 222.476C355.076 222.57 355.144 222.682 355.185 222.805C355.225 222.928 355.239 223.058 355.225 223.187C355.21 223.316 355.167 223.439 355.1 223.55C353.17 226.75 346.25 236.95 340.66 228.68C340.66 228.68 337.41 233.68 335.41 229.21C334.674 227.522 334.516 225.638 334.96 223.85C335.054 223.455 335.244 223.089 335.513 222.784C335.781 222.479 336.12 222.244 336.5 222.1L337.38 221.77Z" fill="#0077B6"/>
<path opacity="0.6" d="M337.38 221.77C337.453 221.74 337.534 221.731 337.612 221.744C337.69 221.757 337.763 221.791 337.823 221.843C337.883 221.894 337.928 221.962 337.952 222.037C337.976 222.112 337.979 222.193 337.96 222.27C337.58 223.92 337.25 227.5 341.6 227.5C345.95 227.5 349.86 223.95 351.53 222.24C351.784 221.98 352.109 221.8 352.465 221.723C352.821 221.647 353.191 221.677 353.53 221.81L354.67 222.26C354.79 222.308 354.899 222.382 354.987 222.476C355.076 222.57 355.144 222.682 355.185 222.805C355.225 222.928 355.239 223.058 355.225 223.187C355.21 223.316 355.167 223.439 355.1 223.55C353.17 226.75 346.25 236.95 340.66 228.68C340.66 228.68 337.41 233.68 335.41 229.21C334.674 227.522 334.516 225.638 334.96 223.85C335.054 223.455 335.244 223.089 335.513 222.784C335.781 222.479 336.12 222.244 336.5 222.1L337.38 221.77Z" fill="white"/>
<path d="M317.81 227.82C317.945 227.716 318.099 227.641 318.264 227.6C318.429 227.558 318.601 227.551 318.769 227.579C318.937 227.606 319.097 227.668 319.24 227.761C319.383 227.853 319.505 227.974 319.6 228.115C319.694 228.257 319.758 228.417 319.788 228.584C319.818 228.752 319.813 228.923 319.773 229.089C319.734 229.254 319.661 229.41 319.559 229.546C319.457 229.682 319.328 229.796 319.18 229.88L301.09 241.88C300.955 241.969 300.803 242.031 300.644 242.062C300.485 242.093 300.321 242.092 300.163 242.059C299.842 241.993 299.56 241.803 299.38 241.53C299.2 241.257 299.135 240.923 299.201 240.602C299.266 240.282 299.457 240 299.73 239.82L317.81 227.82Z" fill="#263238"/>
<path opacity="0.6" d="M317.81 227.82C317.945 227.716 318.099 227.641 318.264 227.6C318.429 227.558 318.601 227.551 318.769 227.579C318.937 227.606 319.097 227.668 319.24 227.761C319.383 227.853 319.505 227.974 319.6 228.115C319.694 228.257 319.758 228.417 319.788 228.584C319.818 228.752 319.813 228.923 319.773 229.089C319.734 229.254 319.661 229.41 319.559 229.546C319.457 229.682 319.328 229.796 319.18 229.88L301.09 241.88C300.955 241.969 300.803 242.031 300.644 242.062C300.485 242.093 300.321 242.092 300.163 242.059C299.842 241.993 299.56 241.803 299.38 241.53C299.2 241.257 299.135 240.923 299.201 240.602C299.266 240.282 299.457 240 299.73 239.82L317.81 227.82Z" fill="white"/>
<path d="M299.73 239.79C299.157 240.384 298.672 241.058 298.29 241.79C298.254 241.853 298.236 241.925 298.239 241.998C298.242 242.07 298.264 242.141 298.305 242.201C298.346 242.261 298.402 242.309 298.468 242.339C298.535 242.369 298.608 242.38 298.68 242.37C299.504 242.309 300.316 242.13 301.09 241.84C301.225 241.751 301.342 241.636 301.432 241.501C301.523 241.367 301.587 241.216 301.619 241.057C301.652 240.899 301.653 240.735 301.622 240.576C301.591 240.417 301.529 240.265 301.44 240.13C301.351 239.995 301.236 239.878 301.101 239.788C300.967 239.697 300.816 239.633 300.657 239.601C300.499 239.568 300.335 239.567 300.176 239.598C300.017 239.629 299.865 239.691 299.73 239.78V239.79Z" fill="#263238"/>
<path opacity="0.8" d="M299.73 239.79C299.157 240.384 298.672 241.058 298.29 241.79C298.254 241.853 298.236 241.925 298.239 241.998C298.242 242.07 298.264 242.141 298.305 242.201C298.346 242.261 298.402 242.309 298.468 242.339C298.535 242.369 298.608 242.38 298.68 242.37C299.504 242.309 300.316 242.13 301.09 241.84C301.225 241.751 301.342 241.636 301.432 241.501C301.523 241.367 301.587 241.216 301.619 241.057C301.652 240.899 301.653 240.735 301.622 240.576C301.591 240.417 301.529 240.265 301.44 240.13C301.351 239.995 301.236 239.878 301.101 239.788C300.967 239.697 300.816 239.633 300.657 239.601C300.499 239.568 300.335 239.567 300.176 239.598C300.017 239.629 299.865 239.691 299.73 239.78V239.79Z" fill="white"/>
<path d="M324.71 247.78L316.82 242.25L315 234.68C314.832 233.949 314.461 233.28 313.931 232.749C313.4 232.219 312.731 231.848 312 231.68C311.052 231.465 310.059 231.602 309.205 232.066C308.351 232.529 307.695 233.288 307.36 234.2L306.75 235.84C306.586 236.285 306.502 236.756 306.5 237.23V238.62C306.5 239.62 306.875 240.583 307.55 241.32L308.63 242.5C308.92 242.814 309.257 243.081 309.63 243.29L314.31 245.9L321.7 253.28L324.71 247.78Z" fill="#EBB376"/>
<path d="M365.06 225.36C365.237 224.86 365.542 224.414 365.945 224.068C366.347 223.722 366.833 223.486 367.354 223.385C367.875 223.284 368.414 223.321 368.917 223.492C369.419 223.663 369.868 223.962 370.22 224.36C371.89 226.42 372.85 230.36 370 238.13C364.31 253.58 355.25 265.71 343.9 265.71C330.44 265.71 316.82 250.13 316.82 250.13L321.54 244.57C321.54 244.57 335.21 253.84 344.33 253.84C349.54 253.88 358 243.76 365.06 225.36Z" fill="#0077B6"/>
<path opacity="0.2" d="M365.06 225.36C365.237 224.86 365.542 224.414 365.945 224.068C366.347 223.722 366.833 223.486 367.354 223.385C367.875 223.284 368.414 223.321 368.917 223.492C369.419 223.663 369.868 223.962 370.22 224.36C371.89 226.42 372.85 230.36 370 238.13C364.31 253.58 355.25 265.71 343.9 265.71C330.44 265.71 316.82 250.13 316.82 250.13L321.54 244.57C321.54 244.57 335.21 253.84 344.33 253.84C349.54 253.88 358 243.76 365.06 225.36Z" fill="white"/>
<path d="M315.64 249.56L320.96 243.14C321.05 243.032 321.178 242.963 321.317 242.946C321.457 242.929 321.597 242.966 321.71 243.05L323.99 244.71C324.051 244.754 324.103 244.811 324.142 244.876C324.18 244.941 324.205 245.013 324.215 245.088C324.224 245.163 324.218 245.239 324.196 245.312C324.175 245.385 324.139 245.452 324.09 245.51L318.09 252.72C318.035 252.788 317.965 252.841 317.886 252.876C317.806 252.911 317.719 252.927 317.632 252.922C317.545 252.917 317.461 252.892 317.386 252.848C317.311 252.804 317.247 252.743 317.2 252.67L315.58 250.22C315.518 250.118 315.491 249.999 315.502 249.88C315.513 249.761 315.561 249.649 315.64 249.56Z" fill="#0077B6"/>
<path opacity="0.6" d="M315.64 249.56L320.96 243.14C321.05 243.032 321.178 242.963 321.317 242.946C321.457 242.929 321.597 242.966 321.71 243.05L323.99 244.71C324.051 244.754 324.103 244.811 324.142 244.876C324.18 244.941 324.205 245.013 324.215 245.088C324.224 245.163 324.218 245.239 324.196 245.312C324.175 245.385 324.139 245.452 324.09 245.51L318.09 252.72C318.035 252.788 317.965 252.841 317.886 252.876C317.806 252.911 317.719 252.927 317.632 252.922C317.545 252.917 317.461 252.892 317.386 252.848C317.311 252.804 317.247 252.743 317.2 252.67L315.58 250.22C315.518 250.118 315.491 249.999 315.502 249.88C315.513 249.761 315.561 249.649 315.64 249.56Z" fill="white"/>
<path d="M340.2 181.24H338.33V181.31C341.771 181.671 344.956 183.293 347.272 185.863C349.587 188.434 350.869 191.77 350.87 195.23H354.19C354.187 191.52 352.713 187.964 350.089 185.34C347.466 182.717 343.91 181.243 340.2 181.24Z" fill="#263238"/>
<path opacity="0.6" d="M340.2 181.24H338.33V181.31C341.771 181.671 344.956 183.293 347.272 185.863C349.587 188.434 350.869 191.77 350.87 195.23H354.19C354.187 191.52 352.713 187.964 350.089 185.34C347.466 182.717 343.91 181.243 340.2 181.24Z" fill="white"/>
<path d="M352.58 206.15C355.087 206.15 357.12 203.432 357.12 200.08C357.12 196.728 355.087 194.01 352.58 194.01C350.073 194.01 348.04 196.728 348.04 200.08C348.04 203.432 350.073 206.15 352.58 206.15Z" fill="#0077B6"/>
<path d="M357.64 200.08C357.64 202.79 356.82 204.08 354.64 204.08C352.46 204.08 351.64 202.81 351.64 200.08C351.64 197.35 352.47 196.08 354.64 196.08C356.81 196.08 357.64 197.36 357.64 200.08Z" fill="#263238"/>
<path opacity="0.5" d="M357.64 200.08C357.64 202.79 356.82 204.08 354.64 204.08C352.46 204.08 351.64 202.81 351.64 200.08C351.64 197.35 352.47 196.08 354.64 196.08C356.81 196.08 357.64 197.36 357.64 200.08Z" fill="white"/>
<path d="M355.3 203.69C356.791 203.69 358 202.074 358 200.08C358 198.086 356.791 196.47 355.3 196.47C353.809 196.47 352.6 198.086 352.6 200.08C352.6 202.074 353.809 203.69 355.3 203.69Z" fill="#263238"/>
<path opacity="0.7" d="M355.3 203.69C356.791 203.69 358 202.074 358 200.08C358 198.086 356.791 196.47 355.3 196.47C353.809 196.47 352.6 198.086 352.6 200.08C352.6 202.074 353.809 203.69 355.3 203.69Z" fill="white"/>
<path d="M170.08 410.97H165.29L163.19 285.67H172.18L170.08 410.97Z" fill="#263238"/>
<path opacity="0.7" d="M170.08 410.97H165.29L163.19 285.67H172.18L170.08 410.97Z" fill="white"/>
<path d="M222.99 410.97H218.19L216.09 285.67H225.09L222.99 410.97Z" fill="#263238"/>
<path opacity="0.7" d="M222.99 410.97H218.19L216.09 285.67H225.09L222.99 410.97Z" fill="white"/>
<path d="M258.12 283.57H167.68V293.37H258.12V283.57Z" fill="#263238"/>
<path opacity="0.5" d="M258.12 283.57H167.68V293.37H258.12V283.57Z" fill="white"/>
<path d="M311.17 283.57H258.13V293.37H311.17V283.57Z" fill="#263238"/>
<path opacity="0.5" d="M311.17 283.57H258.13V293.37H311.17V283.57Z" fill="white"/>
<path d="M313.43 410.97H308.63L306.53 285.67H315.52L313.43 410.97Z" fill="#263238"/>
<path opacity="0.7" d="M313.43 410.97H308.63L306.53 285.67H315.52L313.43 410.97Z" fill="white"/>
<path d="M318.36 277.27H247.74C246.276 277.27 245.09 278.456 245.09 279.92V283.02C245.09 284.484 246.276 285.67 247.74 285.67H318.36C319.824 285.67 321.01 284.484 321.01 283.02V279.92C321.01 278.456 319.824 277.27 318.36 277.27Z" fill="#263238"/>
<path d="M254.26 277.27H158.39C156.926 277.27 155.74 278.456 155.74 279.92V283.02C155.74 284.484 156.926 285.67 158.39 285.67H254.26C255.724 285.67 256.91 284.484 256.91 283.02V279.92C256.91 278.456 255.724 277.27 254.26 277.27Z" fill="#263238"/>
<path opacity="0.2" d="M254.26 277.27H158.39C156.926 277.27 155.74 278.456 155.74 279.92V283.02C155.74 284.484 156.926 285.67 158.39 285.67H254.26C255.724 285.67 256.91 284.484 256.91 283.02V279.92C256.91 278.456 255.724 277.27 254.26 277.27Z" fill="white"/>
<path d="M260.52 410.97H255.73L253.63 285.67H262.62L260.52 410.97Z" fill="#263238"/>
<path opacity="0.7" d="M260.52 410.97H255.73L253.63 285.67H262.62L260.52 410.97Z" fill="white"/>
<path d="M258 277.28C257.629 277.28 257.273 277.133 257.01 276.87C256.747 276.607 256.6 276.251 256.6 275.88C256.6 275.509 256.747 275.153 257.01 274.89C257.273 274.627 257.629 274.48 258 274.48H296.15C296.521 274.48 296.877 274.627 297.14 274.89C297.402 275.153 297.55 275.509 297.55 275.88C297.55 276.251 297.402 276.607 297.14 276.87C296.877 277.133 296.521 277.28 296.15 277.28H258Z" fill="#0077B6"/>
<path d="M261.28 274.86L256.2 238.72C256.093 238.062 255.76 237.462 255.258 237.024C254.756 236.586 254.116 236.337 253.45 236.32H248.59V277.27H259.21C259.517 277.287 259.823 277.234 260.106 277.114C260.389 276.993 260.64 276.809 260.84 276.576C261.041 276.343 261.184 276.067 261.261 275.77C261.337 275.472 261.343 275.161 261.28 274.86Z" fill="#0077B6"/>
<path d="M257.11 277.27H214C213.334 277.252 212.694 277.001 212.194 276.561C211.693 276.121 211.363 275.519 211.26 274.86L206.18 238.72C206.118 238.42 206.126 238.11 206.203 237.814C206.28 237.517 206.424 237.243 206.624 237.011C206.824 236.779 207.075 236.596 207.357 236.476C207.639 236.356 207.944 236.303 208.25 236.32H251.38C252.046 236.339 252.684 236.589 253.186 237.027C253.687 237.464 254.021 238.063 254.13 238.72L259.21 274.86C259.274 275.163 259.267 275.477 259.189 275.777C259.112 276.077 258.965 276.355 258.761 276.589C258.558 276.823 258.303 277.006 258.016 277.124C257.729 277.242 257.419 277.292 257.11 277.27Z" fill="#0077B6"/>
<path opacity="0.7" d="M257.11 277.27H214C213.334 277.252 212.694 277.001 212.194 276.561C211.693 276.121 211.363 275.519 211.26 274.86L206.18 238.72C206.118 238.42 206.126 238.11 206.203 237.814C206.28 237.517 206.424 237.243 206.624 237.011C206.824 236.779 207.075 236.596 207.357 236.476C207.639 236.356 207.944 236.303 208.25 236.32H251.38C252.046 236.339 252.684 236.589 253.186 237.027C253.687 237.464 254.021 238.063 254.13 238.72L259.21 274.86C259.274 275.163 259.267 275.477 259.189 275.777C259.112 276.077 258.965 276.355 258.761 276.589C258.558 276.823 258.303 277.006 258.016 277.124C257.729 277.242 257.419 277.292 257.11 277.27Z" fill="white"/>
<path opacity="0.7" d="M234.77 255.81C234.819 256.083 234.807 256.364 234.734 256.632C234.661 256.9 234.529 257.149 234.348 257.359C234.167 257.57 233.941 257.738 233.687 257.85C233.433 257.963 233.158 258.017 232.88 258.01C232.272 257.99 231.689 257.76 231.231 257.359C230.774 256.958 230.469 256.41 230.37 255.81C230.321 255.537 230.333 255.256 230.406 254.988C230.479 254.72 230.611 254.471 230.792 254.261C230.973 254.05 231.199 253.882 231.453 253.77C231.707 253.657 231.982 253.603 232.26 253.61C232.869 253.626 233.454 253.854 233.913 254.256C234.371 254.658 234.674 255.208 234.77 255.81Z" fill="white"/>
<path d="M197.75 256.46H181.09C180.825 256.46 180.564 256.518 180.324 256.631C180.085 256.743 179.872 256.906 179.703 257.109C179.533 257.312 179.41 257.55 179.342 257.806C179.274 258.062 179.263 258.329 179.31 258.59V258.74C178.479 258.533 177.606 258.561 176.79 258.82C173.79 259.72 173.7 262.4 174.6 265.41C175.5 268.42 177.04 270.61 180.05 269.71C180.534 269.562 180.996 269.346 181.42 269.07C182.017 270.478 182.984 271.698 184.22 272.6V274.8H194.56V272.6C196.301 271.338 197.49 269.455 197.88 267.34L199.5 258.59C199.546 258.332 199.536 258.067 199.47 257.813C199.404 257.56 199.283 257.323 199.117 257.121C198.951 256.918 198.742 256.754 198.506 256.64C198.27 256.526 198.012 256.465 197.75 256.46ZM179.66 267.8C177.66 268.39 176.66 266.95 176.08 264.97C175.5 262.99 175.55 261.24 177.52 260.65C178.246 260.41 179.037 260.468 179.72 260.81L180.89 267.13C180.534 267.441 180.114 267.669 179.66 267.8Z" fill="#0077B6"/>
<path opacity="0.5" d="M197.75 256.46H181.09C180.825 256.46 180.564 256.518 180.324 256.631C180.085 256.743 179.872 256.906 179.703 257.109C179.533 257.312 179.41 257.55 179.342 257.806C179.274 258.062 179.263 258.329 179.31 258.59V258.74C178.479 258.533 177.606 258.561 176.79 258.82C173.79 259.72 173.7 262.4 174.6 265.41C175.5 268.42 177.04 270.61 180.05 269.71C180.534 269.562 180.996 269.346 181.42 269.07C182.017 270.478 182.984 271.698 184.22 272.6V274.8H194.56V272.6C196.301 271.338 197.49 269.455 197.88 267.34L199.5 258.59C199.546 258.332 199.536 258.067 199.47 257.813C199.404 257.56 199.283 257.323 199.117 257.121C198.951 256.918 198.742 256.754 198.506 256.64C198.27 256.526 198.012 256.465 197.75 256.46ZM179.66 267.8C177.66 268.39 176.66 266.95 176.08 264.97C175.5 262.99 175.55 261.24 177.52 260.65C178.246 260.41 179.037 260.468 179.72 260.81L180.89 267.13C180.534 267.441 180.114 267.669 179.66 267.8Z" fill="white"/>
<path d="M195 277.39H183.81C183.112 277.392 182.425 277.22 181.81 276.89L178.01 274.81C177.863 274.727 177.747 274.597 177.681 274.441C177.615 274.285 177.601 274.112 177.644 273.948C177.686 273.784 177.781 273.639 177.914 273.534C178.047 273.43 178.211 273.372 178.38 273.37H200.38C200.549 273.372 200.713 273.43 200.846 273.534C200.979 273.639 201.074 273.784 201.116 273.948C201.159 274.112 201.145 274.285 201.079 274.441C201.013 274.597 200.897 274.727 200.75 274.81L196.95 276.89C196.35 277.212 195.681 277.384 195 277.39Z" fill="#0077B6"/>
<path opacity="0.4" d="M195 277.39H183.81C183.112 277.392 182.425 277.22 181.81 276.89L178.01 274.81C177.863 274.727 177.747 274.597 177.681 274.441C177.615 274.285 177.601 274.112 177.644 273.948C177.686 273.784 177.781 273.639 177.914 273.534C178.047 273.43 178.211 273.372 178.38 273.37H200.38C200.549 273.372 200.713 273.43 200.846 273.534C200.979 273.639 201.074 273.784 201.116 273.948C201.159 274.112 201.145 274.285 201.079 274.441C201.013 274.597 200.897 274.727 200.75 274.81L196.95 276.89C196.35 277.212 195.681 277.384 195 277.39Z" fill="white"/>
<path d="M269.57 137.29H203.42C200.526 137.29 198.18 139.636 198.18 142.53V195.12C198.18 198.014 200.526 200.36 203.42 200.36H269.57C272.464 200.36 274.81 198.014 274.81 195.12V142.53C274.81 139.636 272.464 137.29 269.57 137.29Z" fill="#0077B6"/>
<path opacity="0.6" d="M269.57 137.29H203.42C200.526 137.29 198.18 139.636 198.18 142.53V195.12C198.18 198.014 200.526 200.36 203.42 200.36H269.57C272.464 200.36 274.81 198.014 274.81 195.12V142.53C274.81 139.636 272.464 137.29 269.57 137.29Z" fill="white"/>
<path d="M233.83 149.13C233.83 149.13 228.13 146.21 225.23 152.63C222.33 159.05 215 155.19 218.08 168.2C221.16 181.21 208 176.79 214.33 186.29C220.66 195.79 230.33 189.29 235.63 189.46C240.93 189.63 251.17 192.96 253.63 187.04C256.09 181.12 251.88 179.13 251.79 175.92C251.7 172.71 257.03 165.02 252.71 161.54C244.81 155.14 247.92 145.54 233.83 149.13Z" fill="#2E353A"/>
<path d="M235.63 182.22C242.489 182.22 248.05 175.106 248.05 166.33C248.05 157.554 242.489 150.44 235.63 150.44C228.771 150.44 223.21 157.554 223.21 166.33C223.21 175.106 228.771 182.22 235.63 182.22Z" fill="#B97964"/>
<path d="M236.47 167.05C236.767 168.513 237.269 169.927 237.96 171.25C237.619 171.419 237.246 171.511 236.866 171.519C236.485 171.528 236.108 171.453 235.76 171.3L236.47 167.05Z" fill="#A24E3F"/>
<path d="M231 167.1C231 167.68 231.23 168.17 231.61 168.2C231.99 168.23 232.32 167.77 232.36 167.2C232.4 166.63 232.12 166.14 231.75 166.12C231.38 166.1 231 166.53 231 167.1Z" fill="#2E353A"/>
<path d="M228.93 165.07C228.877 165.08 228.823 165.08 228.77 165.07C228.711 165.004 228.678 164.919 228.678 164.83C228.678 164.741 228.711 164.656 228.77 164.59C229.117 164.176 229.557 163.85 230.054 163.638C230.551 163.426 231.091 163.335 231.63 163.37C231.719 163.385 231.8 163.434 231.854 163.506C231.908 163.579 231.932 163.67 231.92 163.76C231.915 163.804 231.901 163.847 231.879 163.886C231.857 163.925 231.828 163.959 231.792 163.986C231.757 164.014 231.716 164.033 231.673 164.044C231.629 164.055 231.584 164.057 231.54 164.05C231.113 164.026 230.686 164.105 230.294 164.279C229.903 164.452 229.559 164.717 229.29 165.05C229.237 165.086 229.176 165.106 229.113 165.11C229.049 165.113 228.986 165.1 228.93 165.07Z" fill="#2E353A"/>
<path d="M241.37 167.1C241.37 167.68 241.13 168.17 240.75 168.2C240.37 168.23 240.04 167.77 240 167.2C239.96 166.63 240.24 166.14 240.62 166.12C241 166.1 241.33 166.53 241.37 167.1Z" fill="#2E353A"/>
<path d="M243.43 165.07C243.486 165.08 243.544 165.08 243.6 165.07C243.659 165.004 243.692 164.919 243.692 164.83C243.692 164.741 243.659 164.656 243.6 164.59C243.253 164.176 242.813 163.849 242.316 163.637C241.819 163.425 241.279 163.334 240.74 163.37C240.652 163.387 240.573 163.436 240.519 163.509C240.466 163.581 240.441 163.671 240.45 163.76C240.456 163.805 240.471 163.848 240.494 163.887C240.517 163.926 240.548 163.96 240.584 163.987C240.62 164.014 240.662 164.034 240.706 164.044C240.75 164.055 240.795 164.057 240.84 164.05C241.267 164.028 241.694 164.107 242.085 164.281C242.476 164.455 242.82 164.718 243.09 165.05C243.139 165.085 243.197 165.105 243.257 165.109C243.317 165.113 243.377 165.099 243.43 165.07Z" fill="#2E353A"/>
<path d="M236.48 175.92C236.815 175.918 237.15 175.888 237.48 175.83C237.527 175.82 237.568 175.793 237.596 175.754C237.624 175.715 237.636 175.667 237.63 175.62C237.626 175.596 237.618 175.573 237.605 175.553C237.593 175.532 237.576 175.515 237.557 175.501C237.537 175.487 237.515 175.477 237.491 175.471C237.468 175.466 237.444 175.466 237.42 175.47C236.662 175.614 235.882 175.58 235.139 175.372C234.397 175.164 233.713 174.787 233.14 174.27C233.105 174.237 233.058 174.219 233.01 174.219C232.962 174.219 232.915 174.237 232.88 174.27C232.862 174.287 232.848 174.307 232.839 174.329C232.829 174.352 232.824 174.376 232.824 174.4C232.824 174.424 232.829 174.448 232.839 174.471C232.848 174.493 232.862 174.513 232.88 174.53C233.853 175.444 235.145 175.943 236.48 175.92Z" fill="#2E353A"/>
<path d="M234.47 192.61C239.479 192.542 244.394 191.24 248.78 188.82C247.187 188.521 245.571 188.367 243.95 188.36C241.335 189.798 238.383 190.51 235.4 190.42C230.02 190.42 227.12 188.36 227.12 188.36C225.927 188.359 224.735 188.429 223.55 188.57C225.12 190.12 228.55 192.61 234.47 192.61Z" fill="#577AFB"/>
<path d="M242.54 190.14L244.81 188.7C243.642 188.528 242.534 188.075 241.58 187.38C238.65 185.19 240.24 179.6 240.24 179.6H231.83C231.63 182.95 231.72 185.91 229.83 187.3C228.714 188.16 227.358 188.65 225.95 188.7L228.95 190.49C228.76 190.91 230.95 191.7 230.95 191.7L239.3 192.17L240.9 191.17C240.9 191.17 243 190.77 242.54 190.14Z" fill="#B97964"/>
<path d="M227.12 188.36C227.12 188.36 230.02 190.42 235.4 190.42C238.383 190.51 241.335 189.798 243.95 188.36C243.95 188.36 260.62 188.03 260.62 200.36H212.45C212.45 200.36 210.29 188.36 227.12 188.36Z" fill="#0077B6"/>
<path d="M222.53 163.32C222.53 163.32 223.08 168.66 224.83 168.48C226.58 168.3 225.35 160.06 228.65 159.48C231.95 158.9 233.83 158.17 233.96 156.1C234.09 154.03 239.21 155.48 238.52 152.85C240.28 153.625 241.685 155.03 242.46 156.79C243.89 159.85 244.29 158.29 245.34 160.42C246.39 162.55 247.34 168.83 249.02 164.24C250.7 159.65 246.39 155.79 246.39 155.79L242.58 151.29L239.02 150.48L235.97 149.85H231.88L229.14 150.48L225.23 154.67L222.83 158.79L222.53 163.32Z" fill="#2E353A"/>
<path d="M224.63 167.12C225.57 168.94 225.39 171.03 224.23 171.79C223.07 172.55 221.36 171.67 220.43 169.85C219.5 168.03 219.67 165.94 220.83 165.18C221.99 164.42 223.7 165.3 224.63 167.12Z" fill="#B97964"/>
<path d="M245.94 167.12C245 168.94 245.19 171.03 246.35 171.79C247.51 172.55 249.21 171.67 250.15 169.85C251.09 168.03 250.91 165.94 249.74 165.18C248.57 164.42 246.88 165.3 245.94 167.12Z" fill="#B97964"/>
<path d="M222.85 168.51C222.599 168.574 222.383 168.733 222.247 168.953C222.111 169.173 222.065 169.437 222.12 169.69L222.63 172.96C222.645 173.046 222.693 173.123 222.764 173.174C222.835 173.224 222.924 173.244 223.01 173.23C223.096 173.215 223.173 173.167 223.224 173.096C223.274 173.025 223.294 172.936 223.28 172.85L222.92 170.58H223.13C223.371 170.503 223.576 170.343 223.709 170.128C223.843 169.913 223.894 169.658 223.856 169.408C223.817 169.158 223.691 168.93 223.499 168.766C223.307 168.601 223.063 168.51 222.81 168.51H222.85Z" fill="white"/>
<path d="M248.32 168.51C248.571 168.574 248.787 168.733 248.923 168.953C249.059 169.173 249.105 169.437 249.05 169.69L248.53 172.96C248.515 173.046 248.467 173.123 248.396 173.174C248.325 173.224 248.236 173.244 248.15 173.23C248.063 173.215 247.986 173.167 247.933 173.097C247.881 173.026 247.858 172.937 247.87 172.85L248.23 170.58H248C247.758 170.503 247.552 170.342 247.419 170.126C247.286 169.91 247.235 169.654 247.275 169.403C247.315 169.153 247.443 168.925 247.637 168.761C247.83 168.597 248.076 168.508 248.33 168.51H248.32Z" fill="white"/>
<path d="M273.79 146.29C278.766 146.29 282.8 142.256 282.8 137.28C282.8 132.304 278.766 128.27 273.79 128.27C268.814 128.27 264.78 132.304 264.78 137.28C264.78 142.256 268.814 146.29 273.79 146.29Z" fill="#0077B6"/>
<path d="M268.6 142.47C268.46 142.329 268.381 142.139 268.381 141.94C268.381 141.741 268.46 141.551 268.6 141.41L277.92 132.09C278.061 131.95 278.251 131.871 278.45 131.871C278.649 131.871 278.839 131.95 278.98 132.09C279.12 132.231 279.199 132.421 279.199 132.62C279.199 132.819 279.12 133.009 278.98 133.15L269.67 142.47C269.526 142.609 269.335 142.686 269.135 142.686C268.935 142.686 268.744 142.609 268.6 142.47Z" fill="white"/>
<path d="M276.76 142.65H274.13V140.65C274.9 140.568 275.612 140.204 276.129 139.628C276.647 139.052 276.932 138.304 276.93 137.53V136.47C276.93 136.448 276.926 136.426 276.917 136.405C276.908 136.384 276.896 136.366 276.88 136.35C276.864 136.334 276.846 136.322 276.825 136.313C276.804 136.304 276.782 136.3 276.76 136.3H276.34C276.294 136.3 276.25 136.318 276.216 136.349C276.183 136.381 276.163 136.424 276.16 136.47C276.16 136.493 276.165 136.516 276.174 136.537C276.183 136.559 276.196 136.578 276.213 136.594C276.23 136.61 276.25 136.622 276.272 136.63C276.294 136.638 276.317 136.641 276.34 136.64H276.59V137.53C276.59 138.273 276.295 138.985 275.77 139.51C275.245 140.035 274.533 140.33 273.79 140.33C273.047 140.33 272.335 140.035 271.81 139.51C271.285 138.985 270.99 138.273 270.99 137.53V136.64H271.25C271.295 136.64 271.338 136.622 271.37 136.59C271.402 136.558 271.42 136.515 271.42 136.47C271.418 136.426 271.399 136.384 271.368 136.352C271.336 136.321 271.294 136.302 271.25 136.3H270.82C270.776 136.302 270.734 136.321 270.702 136.352C270.671 136.384 270.652 136.426 270.65 136.47V137.53C270.65 138.304 270.936 139.05 271.453 139.626C271.97 140.201 272.681 140.566 273.45 140.65V142.65H270.82C270.729 142.653 270.642 142.691 270.579 142.756C270.515 142.821 270.48 142.909 270.48 143V143.34H277.1V143C277.1 142.909 277.064 142.821 277.001 142.756C276.938 142.691 276.851 142.653 276.76 142.65Z" fill="white"/>
<path d="M271.68 137.57C271.717 138.106 271.956 138.608 272.348 138.974C272.741 139.341 273.258 139.544 273.795 139.544C274.332 139.544 274.849 139.341 275.242 138.974C275.634 138.608 275.873 138.106 275.91 137.57V133.34C275.93 133.05 275.89 132.759 275.793 132.485C275.696 132.211 275.543 131.96 275.345 131.748C275.146 131.535 274.906 131.366 274.64 131.25C274.373 131.134 274.086 131.074 273.795 131.074C273.504 131.074 273.217 131.134 272.95 131.25C272.684 131.366 272.444 131.535 272.245 131.748C272.047 131.96 271.894 132.211 271.797 132.485C271.7 132.759 271.66 133.05 271.68 133.34V137.57Z" fill="white"/>
<path d="M180.39 161.32H81.35C78.456 161.32 76.11 163.666 76.11 166.56V240.51C76.11 243.404 78.456 245.75 81.35 245.75H180.39C183.284 245.75 185.63 243.404 185.63 240.51V166.56C185.63 163.666 183.284 161.32 180.39 161.32Z" fill="#0077B6"/>
<path d="M124.22 168.42C124.22 168.42 119.14 166.87 118.01 177.77C116.88 188.67 109.08 192.3 117.36 196.3C125.64 200.3 133.64 195.92 136.89 196.3C140.14 196.68 146.01 194.55 145.64 189.17C145.27 183.79 135.7 168.17 135.7 168.17L124.22 168.42Z" fill="#263238"/>
<path d="M165.63 216.4C163.84 222.4 158.7 238.3 154.77 237.75C149.94 237.09 146.61 219.75 146.61 219.75L147.94 198.75C147.94 198.75 153.27 198.75 155.61 225.59L161.25 213.45L165.63 216.4Z" fill="#263238"/>
<path d="M161.73 213.63L163.73 209.27L166.87 206.7L168.57 204.87C169.002 204.404 169.571 204.087 170.194 203.964C170.818 203.842 171.464 203.921 172.04 204.19L173.04 204.66C173.624 204.931 174.106 205.382 174.414 205.947C174.722 206.513 174.84 207.162 174.75 207.8L174.22 211.6L165.72 214.35C165.72 214.35 165.48 215.2 165.07 216.58L161.73 213.63Z" fill="#EEC1BB"/>
<path d="M160.93 212.1L166.89 216.18L166.43 218.44L159.84 213.76L160.93 212.1Z" fill="#263238"/>
<path opacity="0.2" d="M160.93 212.1L166.89 216.18L166.43 218.44L159.84 213.76L160.93 212.1Z" fill="white"/>
<path d="M115.52 245.75C115.52 245.75 114.61 221.92 107.44 200.75C120.709 197.645 134.43 196.967 147.94 198.75C147.94 198.75 151.27 213.92 147.27 245.75H115.52Z" fill="#263238"/>
<path opacity="0.2" d="M115.52 245.75C115.52 245.75 114.61 221.92 107.44 200.75C120.709 197.645 134.43 196.967 147.94 198.75C147.94 198.75 151.27 213.92 147.27 245.75H115.52Z" fill="white"/>
<path d="M120.58 232.43C121.79 231.97 122.5 231.68 122.5 231.68L127.88 229.18L131.88 225.38C132.128 225.142 132.321 224.852 132.445 224.531C132.569 224.209 132.621 223.865 132.597 223.521C132.573 223.178 132.474 222.844 132.307 222.543C132.14 222.242 131.909 221.982 131.63 221.78L129.1 220C128.843 219.816 128.553 219.686 128.245 219.617C127.937 219.548 127.619 219.541 127.308 219.597C126.998 219.653 126.702 219.77 126.438 219.943C126.173 220.115 125.946 220.338 125.77 220.6L121.25 227.33C121.25 227.33 120.25 227.62 118.63 228.02L120.58 232.43Z" fill="#EEC1BB"/>
<path d="M120.68 233.05C114.82 235.26 97.26 241.31 91.98 236.55C85.61 230.8 107.44 200.75 107.44 200.75C113.27 207.34 111.17 214.15 111.17 214.15C111.17 214.15 99.94 226 101 228.92C101.93 231.53 113.47 228.92 118.75 227.61L120.68 233.05Z" fill="#263238"/>
<path d="M119.44 226.89L121.94 233.22L119.94 234.39L117.36 226.89H119.44Z" fill="#263238"/>
<path opacity="0.2" d="M119.44 226.89L121.94 233.22L119.94 234.39L117.36 226.89H119.44Z" fill="white"/>
<path d="M134.67 197.81H132.81C132.526 195.913 132.701 193.976 133.32 192.16L126.02 184.72C126.39 188.12 126.55 194.56 124.96 198.1C123.96 198.17 123.03 198.25 122.12 198.34C122.58 199.68 124.34 203.09 130.4 203.09C136.46 203.09 135.34 199.26 134.67 197.81Z" fill="#EEC1BB"/>
<path opacity="0.1" d="M127.39 187.45L126.55 189.7C127.863 192.258 130.037 194.27 132.69 195.38C132.777 194.286 132.989 193.206 133.32 192.16L128.48 187.22L127.39 187.45Z" fill="black"/>
<path d="M122.3 179.15C124.07 185.89 124.67 188.79 128.81 191.61C135.03 195.87 142.93 192.23 143.22 185.09C143.49 178.66 140.56 168.71 133.34 167.31C131.752 167.002 130.113 167.104 128.575 167.605C127.038 168.107 125.654 168.991 124.553 170.176C123.452 171.361 122.672 172.806 122.284 174.377C121.897 175.947 121.916 177.589 122.34 179.15H122.3Z" fill="#EEC1BB"/>
<path d="M121.75 184.86C122.061 185.452 122.487 185.977 123.002 186.404C123.516 186.832 124.111 187.153 124.75 187.35C126.46 187.87 127.35 186.35 126.9 184.71C126.5 183.24 125.13 181.2 123.39 181.4C122.788 181.491 122.246 181.817 121.883 182.306C121.52 182.795 121.364 183.407 121.45 184.01C121.494 184.31 121.596 184.599 121.75 184.86Z" fill="#EEC1BB"/>
<path d="M137.84 179.06C138.58 180.232 139.478 181.295 140.51 182.22C140.27 182.481 139.975 182.686 139.647 182.819C139.318 182.952 138.964 183.011 138.61 182.99L137.84 179.06Z" fill="#D58745"/>
<path d="M131.83 176.53C131.784 176.54 131.736 176.54 131.69 176.53C131.628 176.491 131.585 176.429 131.568 176.358C131.551 176.287 131.563 176.213 131.6 176.15C131.857 175.7 132.218 175.318 132.653 175.036C133.088 174.754 133.584 174.58 134.1 174.53C134.174 174.53 134.244 174.558 134.298 174.608C134.352 174.658 134.385 174.727 134.39 174.8C134.393 174.873 134.367 174.944 134.319 174.998C134.27 175.052 134.202 175.085 134.13 175.09C133.704 175.136 133.295 175.282 132.937 175.516C132.579 175.751 132.282 176.068 132.07 176.44C132.043 176.476 132.005 176.504 131.963 176.52C131.921 176.536 131.874 176.539 131.83 176.53Z" fill="#2E353A"/>
<path d="M138.45 173.65C138.417 173.616 138.393 173.575 138.38 173.53C138.369 173.495 138.366 173.459 138.37 173.422C138.374 173.386 138.385 173.351 138.403 173.32C138.42 173.288 138.444 173.26 138.473 173.238C138.502 173.215 138.535 173.199 138.57 173.19C139.066 173.036 139.592 173.003 140.103 173.094C140.614 173.184 141.097 173.395 141.51 173.71C141.544 173.731 141.574 173.76 141.596 173.793C141.619 173.827 141.633 173.865 141.64 173.905C141.646 173.945 141.643 173.986 141.632 174.025C141.621 174.064 141.602 174.1 141.576 174.131C141.549 174.161 141.517 174.186 141.48 174.203C141.443 174.22 141.403 174.228 141.363 174.228C141.322 174.228 141.282 174.219 141.246 174.203C141.209 174.186 141.176 174.161 141.15 174.13C140.806 173.874 140.406 173.704 139.984 173.634C139.561 173.565 139.127 173.598 138.72 173.73C138.672 173.741 138.622 173.739 138.575 173.725C138.527 173.711 138.484 173.685 138.45 173.65Z" fill="#2E353A"/>
<path d="M133.73 178.91C133.84 179.47 134.22 179.91 134.59 179.79C134.96 179.67 135.16 179.21 135.04 178.65C134.92 178.09 134.55 177.71 134.19 177.78C133.83 177.85 133.62 178.35 133.73 178.91Z" fill="#2E353A"/>
<path d="M140 177.68C140.1 178.23 140.49 178.62 140.85 178.55C141.21 178.48 141.42 177.98 141.31 177.42C141.2 176.86 140.82 176.47 140.46 176.54C140.1 176.61 139.9 177.12 140 177.68Z" fill="#2E353A"/>
<path d="M140.32 176.6L141.58 175.96C141.58 175.96 141.1 177.13 140.32 176.6Z" fill="#2E353A"/>
<path d="M134 177.84L135.25 177.2C135.25 177.2 134.81 178.37 134 177.84Z" fill="#2E353A"/>
<path d="M139.22 184.77C137.666 184.682 136.106 184.729 134.56 184.91C134.854 185.447 135.313 185.876 135.87 186.131C136.427 186.387 137.051 186.457 137.65 186.33C139.4 186.17 139.22 184.77 139.22 184.77Z" fill="#2E353A"/>
<path d="M136.76 185.67C137.441 185.57 138.136 185.671 138.76 185.96C138.449 186.182 138.081 186.31 137.7 186.33C137.019 186.43 136.324 186.329 135.7 186.04C136.011 185.818 136.379 185.69 136.76 185.67Z" fill="#DE5753"/>
<path d="M139.06 184.76C139.035 184.88 138.977 184.991 138.892 185.079C138.807 185.168 138.699 185.23 138.58 185.26C137.582 185.338 136.578 185.338 135.58 185.26C135.422 185.264 135.266 185.231 135.123 185.163C134.981 185.096 134.856 184.995 134.76 184.87C136.189 184.73 137.626 184.694 139.06 184.76Z" fill="white"/>
<path d="M124.22 184.42C124.22 184.42 127.22 181.9 126.55 176.53C125.88 171.16 132.68 176.17 134.04 171.67C135.4 167.17 141.26 176.3 144.14 170.8C147.02 165.3 133.88 163.96 132.57 165.55C131.26 167.14 113.3 164.55 124.22 184.42Z" fill="#263238"/>
<path d="M176.79 229.04H84.94C83.6256 229.04 82.56 230.106 82.56 231.42V235.94C82.56 237.254 83.6256 238.32 84.94 238.32H176.79C178.104 238.32 179.17 237.254 179.17 235.94V231.42C179.17 230.106 178.104 229.04 176.79 229.04Z" fill="white"/>
<path d="M94.66 236V231.37L97.56 233.69L94.66 236Z" fill="#263238"/>
<path d="M102.23 235.05L103.5 233.71L102.23 232.36V235.05Z" fill="#263238"/>
<path d="M103.5 232.41V233.71V235.01H104.07V232.41H103.5Z" fill="#263238"/>
<path d="M89.98 232.36L88.72 233.71L89.98 235.05V232.36Z" fill="#263238"/>
<path d="M88.72 235.01V233.71V232.41H88.14V235.01H88.72Z" fill="#263238"/>
<path d="M174.69 233.03H112.92V234.39H174.69V233.03Z" fill="#263238"/>
<path d="M142.18 230.64H139.98V236.72H142.18V230.64Z" fill="#0077B6"/>
</svg>
