<svg width="500" height="500" viewBox="0 0 500 500" fill="none" xmlns="http://www.w3.org/2000/svg">
<path d="M296.32 113.72C295.4 111.389 294.018 109.267 292.257 107.483C290.497 105.699 288.394 104.289 286.074 103.338C283.755 102.388 281.268 101.915 278.762 101.95C276.255 101.985 273.782 102.525 271.49 103.54C262.97 107.3 258.35 118.23 261.56 126.96C263.163 131.368 266.38 135.003 270.56 137.13C272.299 137.963 273.773 139.261 274.82 140.88L277.46 145.1C278.326 146.481 279.647 147.517 281.196 148.028C282.744 148.539 284.422 148.494 285.94 147.9L292.6 145.27C294.115 144.666 295.372 143.553 296.153 142.121C296.934 140.69 297.192 139.031 296.88 137.43L295.88 132.37C295.559 130.579 295.743 128.733 296.41 127.04C298.035 122.743 298.003 117.995 296.32 113.72Z" fill="#0077B6"/>
<path d="M286.82 156.32C286.393 156.319 285.971 156.23 285.58 156.06C285.203 155.9 284.862 155.667 284.577 155.373C284.292 155.08 284.068 154.732 283.92 154.35C283.628 153.587 283.648 152.74 283.975 151.991C284.303 151.243 284.911 150.653 285.67 150.35L294.5 146.86C295.263 146.565 296.111 146.584 296.86 146.911C297.61 147.239 298.199 147.85 298.5 148.61C298.658 148.987 298.74 149.391 298.74 149.8C298.74 150.209 298.658 150.613 298.5 150.99C298.171 151.747 297.557 152.344 296.79 152.65L288 156.1C287.626 156.252 287.224 156.327 286.82 156.32ZM295.64 147.61C295.376 147.609 295.114 147.66 294.87 147.76L286 151.25C285.61 151.4 285.274 151.663 285.035 152.006C284.796 152.348 284.664 152.754 284.656 153.171C284.649 153.589 284.766 153.999 284.993 154.35C285.22 154.701 285.546 154.976 285.93 155.14C286.186 155.249 286.462 155.305 286.74 155.305C287.018 155.305 287.294 155.249 287.55 155.14L296.38 151.66C296.637 151.557 296.871 151.404 297.068 151.21C297.266 151.016 297.423 150.785 297.53 150.53C297.642 150.276 297.699 150.002 297.699 149.725C297.699 149.448 297.642 149.174 297.53 148.92C297.371 148.521 297.094 148.18 296.737 147.94C296.381 147.701 295.96 147.576 295.53 147.58L295.64 147.61Z" fill="#263238"/>
<path d="M291.32 161.7C291.052 161.697 290.787 161.643 290.54 161.54C290.083 161.323 289.726 160.94 289.54 160.47L289.39 160.08C289.296 159.844 289.25 159.591 289.254 159.337C289.258 159.083 289.312 158.832 289.413 158.598C289.515 158.365 289.661 158.154 289.844 157.978C290.027 157.801 290.243 157.663 290.48 157.57L295.99 155.39C296.47 155.216 296.998 155.232 297.467 155.434C297.935 155.637 298.308 156.011 298.51 156.48L298.66 156.87C298.844 157.348 298.833 157.879 298.629 158.348C298.425 158.818 298.045 159.189 297.57 159.38L292 161.56C291.784 161.648 291.553 161.696 291.32 161.7ZM296.67 156.25C296.553 156.253 296.438 156.277 296.33 156.32L290.82 158.5C290.705 158.544 290.601 158.611 290.512 158.696C290.423 158.78 290.352 158.882 290.303 158.995C290.254 159.107 290.227 159.228 290.225 159.351C290.223 159.474 290.245 159.596 290.29 159.71L290.44 160.1C290.485 160.215 290.553 160.32 290.639 160.409C290.724 160.498 290.827 160.569 290.94 160.618C291.053 160.667 291.175 160.694 291.299 160.696C291.422 160.698 291.545 160.675 291.66 160.63L297.17 158.45C297.285 158.405 297.391 158.338 297.48 158.252C297.569 158.166 297.641 158.063 297.69 157.95C297.737 157.838 297.761 157.717 297.761 157.595C297.761 157.473 297.737 157.352 297.69 157.24L297.54 156.85C297.465 156.679 297.344 156.532 297.191 156.426C297.037 156.32 296.857 156.259 296.67 156.25Z" fill="#263238"/>
<path d="M274.91 131.46C274.228 131.461 273.559 131.277 272.974 130.926C272.389 130.575 271.911 130.071 271.591 129.469C271.271 128.867 271.122 128.189 271.159 127.508C271.195 126.827 271.417 126.169 271.8 125.605C272.183 125.041 272.712 124.591 273.331 124.305C273.95 124.02 274.636 123.908 275.313 123.983C275.991 124.057 276.636 124.315 277.178 124.729C277.72 125.142 278.139 125.696 278.39 126.33L279.77 129.82L276.28 131.19C275.845 131.367 275.38 131.459 274.91 131.46ZM274.91 124.96C274.503 124.956 274.101 125.042 273.731 125.212C273.361 125.382 273.034 125.632 272.773 125.944C272.512 126.255 272.323 126.621 272.22 127.015C272.117 127.408 272.103 127.82 272.179 128.22C272.254 128.619 272.417 128.998 272.656 129.327C272.895 129.656 273.205 129.928 273.562 130.123C273.918 130.318 274.314 130.431 274.72 130.455C275.126 130.479 275.533 130.412 275.91 130.26L278.47 129.26L277.47 126.71C277.263 126.2 276.907 125.764 276.449 125.459C275.99 125.154 275.451 124.994 274.9 125L274.91 124.96Z" fill="white"/>
<path d="M285.97 148.24L278.48 129.25L285.37 126.53L292.86 145.52L291.93 145.89L284.8 127.83L279.77 129.82L286.9 147.87L285.97 148.24Z" fill="white"/>
<path d="M284.8 127.83L283.43 124.34C283.157 123.65 283.095 122.895 283.251 122.169C283.408 121.444 283.776 120.782 284.309 120.266C284.842 119.75 285.517 119.403 286.247 119.271C286.977 119.138 287.73 119.225 288.41 119.521C289.091 119.816 289.669 120.307 290.07 120.931C290.472 121.555 290.679 122.284 290.666 123.026C290.654 123.767 290.421 124.489 289.998 125.098C289.575 125.708 288.98 126.178 288.29 126.45L284.8 127.83ZM286.91 120.21C286.567 120.215 286.228 120.282 285.91 120.41C285.574 120.542 285.267 120.74 285.007 120.991C284.748 121.242 284.54 121.543 284.397 121.875C284.254 122.206 284.178 122.563 284.173 122.925C284.169 123.286 284.235 123.645 284.37 123.98L285.37 126.53L287.92 125.53C288.516 125.296 289.012 124.862 289.322 124.301C289.632 123.741 289.737 123.09 289.618 122.461C289.5 121.832 289.165 121.264 288.673 120.855C288.18 120.445 287.56 120.221 286.92 120.22L286.91 120.21Z" fill="white"/>
<path d="M300.33 175.49C296.575 175.495 292.825 175.191 289.12 174.58L289.29 173.58C292.926 174.18 296.605 174.481 300.29 174.48L300.33 175.49Z" fill="#0077B6"/>
<path d="M321 185.85L321.53 184.77C323.374 180.664 323.745 176.048 322.58 171.7C318.689 173.095 314.669 174.1 310.58 174.7L310.43 173.7C314.621 173.073 318.737 172.014 322.71 170.54L323.21 170.36L323.36 170.86C324.629 175.199 324.465 179.832 322.89 184.07C335.18 179.18 348.01 161.82 348.01 141.14C348.01 122.78 326.6 107.84 300.28 107.84C273.96 107.84 252.56 122.78 252.56 141.14C252.56 154.49 263.93 166.52 281.56 171.78L281.27 172.78C263.27 167.39 251.59 154.99 251.59 141.18C251.59 122.27 273.45 106.88 300.31 106.88C327.17 106.88 349.04 122.27 349.04 141.18C349.04 162.92 335.04 181.09 322.14 185.46L321 185.85Z" fill="#0077B6"/>
<path d="M348.761 115.324L315.449 121.276C313.057 121.703 311.464 123.989 311.891 126.381L315.437 146.227C315.864 148.619 318.15 150.212 320.542 149.784L353.855 143.833C356.247 143.405 357.84 141.12 357.412 138.727L353.866 118.882C353.439 116.489 351.153 114.897 348.761 115.324Z" fill="#0077B6"/>
<path d="M340.76 131.49L328.96 127.23L331.17 139.57L340.76 131.49Z" fill="white"/>
<path d="M215.26 296.67H130.3C128.538 296.67 127.11 298.098 127.11 299.86V304.39C127.11 306.152 128.538 307.58 130.3 307.58H215.26C217.022 307.58 218.45 306.152 218.45 304.39V299.86C218.45 298.098 217.022 296.67 215.26 296.67Z" fill="#0077B6"/>
<path d="M214.3 410.24H216.83L213.92 307.58H210.41L214.3 410.24Z" fill="#0077B6"/>
<path opacity="0.3" d="M214.3 410.24H216.83L213.92 307.58H210.41L214.3 410.24Z" fill="white"/>
<path d="M190.97 410.24H188.44L191.36 307.58H194.86L190.97 410.24Z" fill="#0077B6"/>
<path opacity="0.3" d="M190.97 410.24H188.44L191.36 307.58H194.86L190.97 410.24Z" fill="white"/>
<path d="M154.59 410.24H157.13L154.21 307.58H150.7L154.59 410.24Z" fill="#0077B6"/>
<path opacity="0.3" d="M154.59 410.24H157.13L154.21 307.58H150.7L154.59 410.24Z" fill="white"/>
<path d="M131.27 410.24H128.73L131.65 307.58H135.15L131.27 410.24Z" fill="#0077B6"/>
<path opacity="0.3" d="M131.27 410.24H128.73L131.65 307.58H135.15L131.27 410.24Z" fill="white"/>
<path d="M241.31 384.15L250.33 381.1L242.91 360.04L233.9 363.09L241.31 384.15Z" fill="#FFC3BD"/>
<path d="M249.66 377.62L239.78 382C239.698 382.029 239.624 382.075 239.561 382.135C239.499 382.195 239.451 382.268 239.419 382.349C239.388 382.43 239.374 382.516 239.38 382.603C239.385 382.689 239.409 382.774 239.45 382.85L243.2 390.47C243.435 390.869 243.805 391.171 244.244 391.32C244.683 391.468 245.161 391.454 245.59 391.28C249 389.71 250.53 388.8 254.88 386.89C257.56 385.72 262.95 383.63 266.29 381.48C269.63 379.33 267.01 376.23 265.37 376.85C261.48 378.33 255.01 378.27 251.47 377.51C250.87 377.359 250.238 377.398 249.66 377.62Z" fill="#263238"/>
<path opacity="0.2" d="M233.9 363.1L242.92 360.04L247.15 372.09L237.98 374.71L233.9 363.1Z" fill="black"/>
<path d="M177.42 268.19C177.42 268.19 222.42 276.31 226.05 291.09C233.18 320.31 249.26 366.01 249.26 366.01L232.14 371.01C232.14 371.01 207.66 318.6 204.58 300.96C179.33 300.96 148.58 302.96 144.58 292.28C141.07 282.8 142.32 268.23 142.32 268.23L177.42 268.19Z" fill="#263238"/>
<path d="M231.2 374L251.2 367.4L249.49 358.37L227.68 366.05L231.2 374Z" fill="#0077B6"/>
<path d="M202.11 387.35L212.07 388.11L206.22 363.53L196.93 365.63L202.11 387.35Z" fill="#FFC3BD"/>
<path d="M211.82 385.71L201.09 384.52C201.004 384.504 200.915 384.507 200.83 384.529C200.745 384.55 200.665 384.59 200.597 384.645C200.529 384.7 200.473 384.769 200.434 384.848C200.395 384.926 200.373 385.012 200.37 385.1L199.81 393.58C199.829 394.039 200.005 394.477 200.31 394.821C200.614 395.166 201.027 395.395 201.48 395.47C205.21 395.82 207 395.79 211.72 396.31C214.62 396.63 220.34 397.52 224.31 397.31C228.28 397.1 227.56 393.11 225.82 392.84C221.71 392.17 216.15 388.89 213.46 386.46C213.006 386.044 212.432 385.781 211.82 385.71Z" fill="#263238"/>
<path opacity="0.2" d="M196.93 365.64L206.22 363.54L209.17 375.96L199.78 377.61L196.93 365.64Z" fill="black"/>
<path d="M154 268.19C154 268.19 208.71 276.38 206.2 297.09C202.59 326.95 211.86 370.14 211.86 370.14L194.31 373.28C194.31 373.28 181.41 319.6 181.31 301.69C163.51 301.69 132.41 302.96 128.43 292.24C124.92 282.76 126.17 268.19 126.17 268.19H154Z" fill="#263238"/>
<path d="M193.1 376.2L213.69 371.72L212.93 362.57L190.43 367.92L193.1 376.2Z" fill="#0077B6"/>
<path d="M182.86 210.64C184.32 216.36 185.75 222.13 187.15 227.88C188.55 233.63 189.92 239.39 191.37 245.07L192.46 249.3L193.02 251.38L193.31 252.38V252.51V252.57C193.31 252.57 193.31 252.48 193.26 252.44C193.184 252.235 193.091 252.038 192.98 251.85L192.83 251.62L192.72 251.47L192.52 251.25C192.31 251.05 192.28 251.08 192.33 251.13C192.438 251.241 192.559 251.338 192.69 251.42C193.13 251.717 193.591 251.981 194.07 252.21C195.15 252.74 196.41 253.21 197.7 253.73C202.9 255.66 208.64 257.3 214.22 259.07L213.34 265.45C210.269 265.486 207.199 265.365 204.14 265.09C201.028 264.834 197.933 264.4 194.87 263.79C193.226 263.471 191.602 263.05 190.01 262.53C189.091 262.236 188.192 261.882 187.32 261.47C186.784 261.22 186.266 260.933 185.77 260.61C185.08 260.17 184.446 259.65 183.88 259.06C183.7 258.86 183.53 258.67 183.33 258.41L183.05 258.03L182.77 257.56C182.564 257.208 182.387 256.84 182.24 256.46L182.08 256L181.69 254.9L180.94 252.72C180.45 251.27 179.94 249.82 179.53 248.38C177.72 242.6 176.07 236.85 174.53 231.06C172.99 225.27 171.53 219.49 170.19 213.63L182.86 210.64Z" fill="#FFC3BD"/>
<path d="M168.8 203.72C174.29 197.6 182.99 201.88 186.66 215.58C188.44 222.24 187.88 225.72 187.88 225.72L168.94 231.56C164.87 222.56 161.33 212.06 168.8 203.72Z" fill="#0077B6"/>
<g opacity="0.2">
<path d="M168.8 203.72C174.29 197.6 182.99 201.88 186.66 215.58C188.44 222.24 187.88 225.72 187.88 225.72L168.94 231.56C164.87 222.56 161.33 212.06 168.8 203.72Z" fill="black"/>
</g>
<path d="M224.15 256.5L222.45 255.98C221.421 255.669 220.339 255.57 219.27 255.69L215.62 256.12C214.443 256.4 213.339 256.924 212.379 257.66C211.419 258.396 210.626 259.326 210.05 260.39L208.81 262.81C209.43 267.27 218.47 265.81 218.47 265.81H227L226.72 259.75C226.677 259.01 226.407 258.301 225.948 257.72C225.488 257.138 224.86 256.712 224.15 256.5Z" fill="#FFC3BD"/>
<path d="M230 246.74C229.758 248.383 229.065 249.926 228 251.2C227.09 252.53 226.15 253.85 225.2 255.2C223.29 257.81 221.34 260.38 219.2 262.83C219.106 262.936 218.977 263.004 218.837 263.021C218.697 263.039 218.555 263.004 218.438 262.924C218.321 262.845 218.238 262.725 218.203 262.588C218.169 262.451 218.185 262.306 218.25 262.18C219.73 259.28 221.4 256.52 223.11 253.78C223.97 252.413 224.85 251.057 225.75 249.71C226.527 248.238 227.692 247.006 229.12 246.15C229.226 246.085 229.347 246.052 229.471 246.053C229.595 246.054 229.716 246.09 229.82 246.157C229.925 246.224 230.008 246.319 230.061 246.431C230.114 246.542 230.134 246.667 230.12 246.79L230 246.74Z" fill="#263238"/>
<path d="M170.07 197.79L159.4 194.79L145.67 194.15C143.588 194.052 141.531 194.641 139.817 195.827C138.102 197.012 136.824 198.728 136.18 200.71C133.56 208.71 131.18 220.23 129.4 230.2C127.288 242.757 126.214 255.467 126.19 268.2H177.42C178.47 239.75 181.82 225.85 183.8 215.78C184.381 212.797 183.954 209.705 182.588 206.99C181.221 204.275 178.992 202.091 176.25 200.78L170.07 197.79Z" fill="#0077B6"/>
<path d="M155.76 199.79C157.06 203.13 162.09 210.27 167.94 213.06C171.19 210.71 171.89 205.58 172.38 203.18L155.76 199.79Z" fill="white"/>
<path d="M172.38 203.18C172.759 201.86 172.601 200.444 171.94 199.24C171.11 197.94 171.32 196.45 172.15 194.92C172.808 193.702 173.633 192.581 174.6 191.59L167.89 183.74L162.42 177.4C161.95 183.33 161.49 190.68 156.81 195.28C155.16 196.91 154.81 197.4 155.76 199.79C157.06 203.13 161.76 207.79 167.56 210.58C168.816 209.73 169.89 208.638 170.718 207.367C171.546 206.096 172.111 204.673 172.38 203.18Z" fill="#FFC3BD"/>
<path opacity="0.2" d="M172.54 190.24L168.75 184.09C168.68 184.25 168.59 184.42 168.5 184.6C168.159 185.361 167.884 186.151 167.68 186.96C166.99 189.69 169.31 193.59 171.85 195.45C171.96 195.28 172.05 195.1 172.15 194.92C172.797 193.765 173.564 192.683 174.44 191.69C174.49 191.652 174.544 191.618 174.6 191.59L172.54 190.24Z" fill="black"/>
<path d="M185.78 175.54C186.66 181.21 194.78 166.62 190.24 163.42C184.7 159.5 184.12 164.75 185.78 175.54Z" fill="#263238"/>
<path d="M162.67 168.14C162.15 177.35 161.36 182.7 165.59 188.02C171.95 196.02 184.16 193.38 187.53 184.57C190.53 176.63 190.9 162.91 182.05 158.05C173.2 153.19 163.19 158.94 162.67 168.14Z" fill="#FFC3BD"/>
<path d="M180.82 162.61C180.82 162.61 186.71 168.39 190.91 166C195.11 163.61 195.96 157.42 190.91 152C188.48 149.39 184.8 146.84 177.58 147C178.15 147.555 178.832 147.981 179.58 148.25C179.58 148.25 170.42 146.72 164.04 149.35C164.551 150.119 165.236 150.756 166.04 151.21C159.83 150.74 153.79 153.21 158.04 159.04C152.41 159.59 151.15 166.79 154.15 171.54C157.15 176.29 157.68 179.85 161.69 182.01C161.69 175.54 163.18 174.01 163.18 174.01C166.07 172.78 169.4 166.62 168.73 163.51C174.91 166 181.5 166.82 180.82 162.61Z" fill="#263238"/>
<path d="M159.52 158.83C157.56 157.433 156.038 155.509 155.13 153.28C154.41 156.5 157.74 160.17 157.74 160.17L159.52 158.83Z" fill="#263238"/>
<path d="M158.07 173.17C158.138 175.279 158.966 177.292 160.4 178.84C162.31 180.84 164.91 179.14 165.4 176.57C165.8 174.26 164.82 170.73 162.4 169.69C159.98 168.65 158 170.59 158.07 173.17Z" fill="#FFC3BD"/>
<path d="M177.75 172.89C177.6 173.65 177.87 174.36 178.36 174.48C178.85 174.6 179.36 174.08 179.53 173.32C179.7 172.56 179.41 171.85 178.92 171.73C178.43 171.61 177.9 172.14 177.75 172.89Z" fill="#263238"/>
<path d="M186.25 174.92C186.09 175.68 186.37 176.38 186.86 176.5C187.35 176.62 187.86 176.1 188.03 175.34C188.2 174.58 187.9 173.87 187.41 173.76C186.92 173.65 186.4 174.16 186.25 174.92Z" fill="#263238"/>
<path d="M183.42 174.86C183.641 177.038 184.152 179.177 184.94 181.22C183.54 181.93 181.78 180.86 181.78 180.86L183.42 174.86Z" fill="#ED847E"/>
<path d="M180.21 185.11C179.329 184.926 178.495 184.565 177.758 184.049C177.021 183.534 176.395 182.874 175.92 182.11C175.901 182.084 175.888 182.053 175.881 182.022C175.875 181.99 175.875 181.957 175.882 181.925C175.889 181.893 175.903 181.863 175.923 181.837C175.942 181.811 175.967 181.789 175.996 181.774C176.024 181.758 176.056 181.749 176.088 181.746C176.121 181.743 176.153 181.748 176.184 181.759C176.215 181.77 176.243 181.787 176.266 181.81C176.29 181.832 176.308 181.86 176.32 181.89C176.85 182.706 177.56 183.39 178.396 183.89C179.231 184.389 180.17 184.69 181.14 184.77C181.169 184.771 181.198 184.778 181.225 184.791C181.251 184.804 181.275 184.823 181.294 184.845C181.312 184.868 181.326 184.894 181.334 184.923C181.342 184.951 181.344 184.981 181.34 185.01C181.339 185.04 181.331 185.069 181.319 185.096C181.306 185.123 181.288 185.147 181.265 185.167C181.243 185.186 181.216 185.201 181.188 185.21C181.16 185.219 181.13 185.223 181.1 185.22C180.801 185.201 180.504 185.164 180.21 185.11Z" fill="#263238"/>
<path d="M176.63 169.83C176.56 169.802 176.498 169.757 176.45 169.7C176.374 169.607 176.338 169.487 176.35 169.368C176.361 169.248 176.418 169.138 176.51 169.06C177.051 168.593 177.7 168.266 178.397 168.109C179.095 167.952 179.821 167.97 180.51 168.16C180.624 168.198 180.718 168.281 180.772 168.388C180.825 168.496 180.833 168.621 180.795 168.735C180.757 168.849 180.674 168.943 180.567 168.997C180.459 169.05 180.334 169.058 180.22 169.02C179.677 168.882 179.109 168.878 178.564 169.007C178.019 169.136 177.514 169.394 177.09 169.76C177.027 169.812 176.951 169.847 176.87 169.859C176.789 169.871 176.706 169.861 176.63 169.83Z" fill="#263238"/>
<path d="M187.3 170C187.285 169.927 187.285 169.853 187.3 169.78C187.335 169.665 187.412 169.568 187.516 169.509C187.621 169.449 187.743 169.432 187.86 169.46C188.549 169.644 189.182 169.993 189.705 170.477C190.228 170.962 190.625 171.567 190.86 172.24C190.877 172.297 190.882 172.357 190.876 172.416C190.869 172.475 190.851 172.533 190.822 172.585C190.793 172.637 190.754 172.683 190.708 172.72C190.661 172.757 190.607 172.784 190.55 172.8C190.493 172.817 190.433 172.822 190.374 172.816C190.315 172.809 190.257 172.791 190.205 172.762C190.153 172.733 190.107 172.694 190.07 172.648C190.033 172.601 190.006 172.547 189.99 172.49C189.798 171.964 189.479 171.493 189.062 171.118C188.646 170.743 188.144 170.476 187.6 170.34C187.526 170.312 187.46 170.267 187.407 170.208C187.355 170.148 187.318 170.077 187.3 170Z" fill="#263238"/>
<path d="M147.81 207.88C145.89 213.36 143.97 219.07 142.26 224.67C141.39 227.47 140.6 230.28 139.89 233.05C139.202 235.71 138.668 238.408 138.29 241.13C138.29 241.43 138.21 241.76 138.2 242.05V242.49C138.2 242.63 138.2 242.84 138.2 242.77C138.2 242.7 138.12 242.83 138.2 243.04C138.454 243.804 138.866 244.506 139.41 245.1C141.128 247.002 143.076 248.681 145.21 250.1C150.026 253.347 155.054 256.267 160.26 258.84L158.12 265C155.021 264.324 151.966 263.462 148.97 262.42C145.918 261.374 142.938 260.128 140.05 258.69C136.883 257.145 133.953 255.155 131.35 252.78C129.696 251.256 128.363 249.416 127.43 247.37C126.848 246.055 126.509 244.646 126.43 243.21C126.43 242.76 126.43 242.6 126.43 242.36V241.66C126.43 241.19 126.43 240.76 126.43 240.31C126.602 236.98 127.02 233.668 127.68 230.4C128.28 227.24 129.03 224.18 129.84 221.14C131.462 215.102 133.402 209.154 135.65 203.32L147.81 207.88Z" fill="#FFC3BD"/>
<path d="M145 194.09C154.78 194 156.63 201.61 151.31 213.67C149.274 218.028 146.787 222.161 143.89 226L127.72 217.41C129.88 207.78 133.83 194.19 145 194.09Z" fill="#0077B6"/>
<path d="M172 257.88L168.42 255.88C167.835 255.559 167.162 255.433 166.5 255.52L162.2 256.12C159.31 256.42 157.2 258.63 155.63 260.55L153.8 262.79C153.71 267.31 165.13 266.25 165.13 266.25L175.13 266.12L174.82 262.18C174.741 261.286 174.442 260.426 173.95 259.676C173.458 258.926 172.788 258.309 172 257.88Z" fill="#FFC3BD"/>
<path d="M385.34 263.89H114.65V276.56H385.34V263.89Z" fill="#0077B6"/>
<path opacity="0.3" d="M202.45 263.89H114.65V276.56H202.45V263.89Z" fill="white"/>
<path d="M121.9 276.56H117.76V416.24H121.9V276.56Z" fill="#0077B6"/>
<path opacity="0.7" d="M121.9 276.56H117.76V416.24H121.9V276.56Z" fill="white"/>
<path d="M199.35 276.56H195.21V416.24H199.35V276.56Z" fill="#0077B6"/>
<path opacity="0.7" d="M199.35 276.56H195.21V416.24H199.35V276.56Z" fill="white"/>
<path d="M304.79 276.56H300.65V416.24H304.79V276.56Z" fill="#0077B6"/>
<path opacity="0.7" d="M304.79 276.56H300.65V416.24H304.79V276.56Z" fill="white"/>
<path d="M382.24 276.56H378.1V416.24H382.24V276.56Z" fill="#0077B6"/>
<path opacity="0.7" d="M382.24 276.56H378.1V416.24H382.24V276.56Z" fill="white"/>
<path d="M356 207.89H282C280.732 207.936 279.517 208.411 278.554 209.237C277.591 210.064 276.937 211.193 276.7 212.44L268.98 259.33C268.862 259.889 268.872 260.467 269.01 261.022C269.147 261.576 269.409 262.092 269.774 262.531C270.14 262.97 270.601 263.32 271.121 263.556C271.642 263.791 272.209 263.905 272.78 263.89H346.78C348.051 263.846 349.27 263.371 350.235 262.542C351.2 261.713 351.855 260.58 352.09 259.33L359.81 212.44C359.929 211.881 359.918 211.302 359.78 210.747C359.642 210.192 359.38 209.676 359.012 209.238C358.645 208.799 358.183 208.45 357.662 208.217C357.14 207.983 356.571 207.872 356 207.89Z" fill="#263238"/>
<path d="M309.01 260.83H239.34C238.882 260.83 238.51 261.202 238.51 261.66V263.06C238.51 263.518 238.882 263.89 239.34 263.89H309.01C309.468 263.89 309.84 263.518 309.84 263.06V261.66C309.84 261.202 309.468 260.83 309.01 260.83Z" fill="#263238"/>
<path opacity="0.2" d="M356 207.89H283.62C282.352 207.936 281.137 208.411 280.174 209.237C279.211 210.064 278.557 211.193 278.32 212.44L270.6 259.33C270.48 259.889 270.489 260.468 270.625 261.024C270.762 261.579 271.024 262.096 271.39 262.535C271.756 262.975 272.217 263.325 272.739 263.56C273.26 263.794 273.828 263.907 274.4 263.89H346.73C348.001 263.846 349.22 263.371 350.185 262.542C351.15 261.713 351.805 260.58 352.04 259.33L359.76 212.44C359.878 211.885 359.868 211.31 359.733 210.759C359.597 210.208 359.339 209.695 358.978 209.258C358.616 208.82 358.161 208.47 357.645 208.233C357.13 207.997 356.567 207.879 356 207.89Z" fill="white"/>
<path d="M164.46 260.83C164.46 260.83 188.29 264.38 199.79 259.69C205.17 262.28 224.33 263.56 231 260.83C228.94 263.22 224.1 263.89 224.1 263.89H173.83C169 263.89 165.31 261.78 164.46 260.83Z" fill="#0077B6"/>
<path opacity="0.7" d="M164.46 260.83C164.46 260.83 188.29 264.38 199.79 259.69C205.17 262.28 224.33 263.56 231 260.83C228.94 263.22 224.1 263.89 224.1 263.89H173.83C169 263.89 165.31 261.78 164.46 260.83Z" fill="white"/>
</svg>
