<svg width="1032" height="203" viewBox="0 0 1032 203" fill="none" xmlns="http://www.w3.org/2000/svg">
<g clip-path="url(#clip0_1_5)">
<path d="M369.995 176.1L294.9 101.005C291.03 97.135 291.03 90.865 294.9 86.995L314.995 66.9C318.865 63.03 325.135 63.03 329.005 66.9L404.1 141.995C407.97 145.865 407.97 152.135 404.1 156.005L384.005 176.1C380.135 179.965 373.865 179.965 369.995 176.1Z" fill="url(#paint0_linear_1_5)"/>
<path d="M349.9 141.995L484.995 6.9C488.865 3.03 495.135 3.03 499.005 6.9L519.1 26.995C522.97 30.865 522.97 37.135 519.1 41.005L384.005 176.1C380.135 179.97 373.865 179.97 369.995 176.1L349.9 156.005C346.035 152.135 346.035 145.865 349.9 141.995Z" fill="url(#paint1_linear_1_5)"/>
<path d="M19.072 170.152C15.8293 170.152 13.3547 169.256 11.648 167.464C9.94133 165.672 9.088 163.155 9.088 159.912V87.848C9.088 84.6053 9.94133 82.088 11.648 80.296C13.3547 78.504 15.8293 77.608 19.072 77.608C22.2293 77.608 24.6613 78.504 26.368 80.296C28.0747 82.088 28.928 84.6053 28.928 87.848V159.912C28.928 163.155 28.0747 165.672 26.368 167.464C24.7467 169.256 22.3147 170.152 19.072 170.152ZM55.152 170.152C51.9947 170.152 49.5627 169.299 47.856 167.592C46.2347 165.885 45.424 163.453 45.424 160.296V114.856C45.424 111.699 46.2347 109.309 47.856 107.688C49.5627 105.981 51.9093 105.128 54.896 105.128C57.968 105.128 60.3147 105.981 61.936 107.688C63.5573 109.309 64.368 111.699 64.368 114.856V122.152L62.96 117.928C64.9227 113.747 67.824 110.547 71.664 108.328C75.5893 106.024 80.0267 104.872 84.976 104.872C90.0107 104.872 94.1493 105.853 97.392 107.816C100.635 109.693 103.067 112.595 104.688 116.52C106.309 120.36 107.12 125.267 107.12 131.24V160.296C107.12 163.453 106.267 165.885 104.56 167.592C102.939 169.299 100.549 170.152 97.392 170.152C94.32 170.152 91.9307 169.299 90.224 167.592C88.6027 165.885 87.792 163.453 87.792 160.296V132.136C87.792 127.784 86.9813 124.669 85.36 122.792C83.824 120.829 81.4347 119.848 78.192 119.848C74.096 119.848 70.8107 121.128 68.336 123.688C65.9467 126.248 64.752 129.661 64.752 133.928V160.296C64.752 166.867 61.552 170.152 55.152 170.152ZM152.397 170.408C146.509 170.408 141.56 169.427 137.549 167.464C133.624 165.501 130.68 162.643 128.717 158.888C126.84 155.133 125.901 150.397 125.901 144.68V120.616H120.525C118.136 120.616 116.258 119.976 114.893 118.696C113.613 117.416 112.973 115.667 112.973 113.448C112.973 111.059 113.613 109.267 114.893 108.072C116.258 106.792 118.136 106.152 120.525 106.152H125.901V96.424C125.901 93.1813 126.754 90.7493 128.461 89.128C130.168 87.4213 132.557 86.568 135.629 86.568C138.786 86.568 141.176 87.4213 142.797 89.128C144.418 90.7493 145.229 93.1813 145.229 96.424V106.152H157.389C159.778 106.152 161.613 106.792 162.893 108.072C164.173 109.267 164.813 111.059 164.813 113.448C164.813 115.667 164.173 117.416 162.893 118.696C161.613 119.976 159.778 120.616 157.389 120.616H145.229V143.912C145.229 147.496 146.04 150.184 147.661 151.976C149.368 153.768 152.056 154.664 155.725 154.664C157.005 154.664 158.2 154.536 159.309 154.28C160.418 154.024 161.442 153.853 162.381 153.768C163.576 153.683 164.557 154.067 165.325 154.92C166.093 155.688 166.477 157.437 166.477 160.168C166.477 162.216 166.136 164.008 165.453 165.544C164.77 167.08 163.576 168.189 161.869 168.872C160.76 169.299 159.224 169.64 157.261 169.896C155.384 170.237 153.762 170.408 152.397 170.408ZM205.314 170.408C197.89 170.408 191.49 169.085 186.114 166.44C180.823 163.709 176.727 159.912 173.826 155.048C171.01 150.099 169.602 144.296 169.602 137.64C169.602 131.155 170.967 125.48 173.698 120.616C176.429 115.667 180.226 111.827 185.09 109.096C190.039 106.28 195.629 104.872 201.858 104.872C206.381 104.872 210.477 105.64 214.146 107.176C217.815 108.627 220.973 110.76 223.618 113.576C226.263 116.307 228.269 119.677 229.634 123.688C230.999 127.613 231.682 132.008 231.682 136.872C231.682 138.493 231.17 139.731 230.146 140.584C229.122 141.352 227.629 141.736 225.666 141.736H185.474V131.752H217.73L215.682 133.544C215.682 130.045 215.17 127.144 214.146 124.84C213.122 122.451 211.629 120.659 209.666 119.464C207.789 118.269 205.442 117.672 202.626 117.672C199.469 117.672 196.781 118.397 194.562 119.848C192.343 121.299 190.637 123.389 189.442 126.12C188.247 128.851 187.65 132.136 187.65 135.976V137C187.65 143.485 189.143 148.264 192.13 151.336C195.202 154.408 199.725 155.944 205.698 155.944C207.746 155.944 210.093 155.688 212.738 155.176C215.383 154.664 217.858 153.853 220.162 152.744C222.125 151.805 223.874 151.507 225.41 151.848C226.946 152.104 228.141 152.787 228.994 153.896C229.847 155.005 230.317 156.285 230.402 157.736C230.573 159.187 230.274 160.637 229.506 162.088C228.738 163.453 227.458 164.605 225.666 165.544C222.765 167.165 219.479 168.36 215.81 169.128C212.226 169.981 208.727 170.408 205.314 170.408ZM252.908 170.152C249.665 170.152 247.191 169.299 245.484 167.592C243.777 165.885 242.924 163.453 242.924 160.296V114.856C242.924 111.699 243.735 109.309 245.356 107.688C247.063 105.981 249.409 105.128 252.396 105.128C255.468 105.128 257.815 105.981 259.436 107.688C261.057 109.309 261.868 111.699 261.868 114.856V121.512H260.588C261.612 116.392 263.873 112.424 267.372 109.608C270.871 106.792 275.393 105.213 280.94 104.872C283.073 104.701 284.695 105.256 285.804 106.536C286.999 107.731 287.639 109.736 287.724 112.552C287.895 115.197 287.34 117.288 286.06 118.824C284.865 120.36 282.817 121.299 279.916 121.64L276.972 121.896C272.108 122.323 268.481 123.731 266.092 126.12C263.788 128.509 262.636 131.965 262.636 136.488V160.296C262.636 163.453 261.783 165.885 260.076 167.592C258.455 169.299 256.065 170.152 252.908 170.152Z" fill="black"/>
<path d="M497.152 176.024C493.995 176.024 491.563 175.128 489.856 173.336C488.235 171.459 487.424 168.856 487.424 165.528V121.752C487.424 118.339 488.235 115.736 489.856 113.944C491.563 112.067 493.995 111.128 497.152 111.128C500.224 111.128 502.571 112.067 504.192 113.944C505.899 115.736 506.752 118.339 506.752 121.752V165.528C506.752 168.856 505.941 171.459 504.32 173.336C502.699 175.128 500.309 176.024 497.152 176.024ZM497.152 100.632C493.568 100.632 490.795 99.8213 488.832 98.2C486.955 96.4933 486.016 94.104 486.016 91.032C486.016 87.8747 486.955 85.4853 488.832 83.864C490.795 82.1573 493.568 81.304 497.152 81.304C500.736 81.304 503.467 82.1573 505.344 83.864C507.221 85.4853 508.16 87.8747 508.16 91.032C508.16 94.104 507.221 96.4933 505.344 98.2C503.467 99.8213 500.736 100.632 497.152 100.632ZM554.314 176.408C546.89 176.408 540.49 175.085 535.114 172.44C529.823 169.709 525.727 165.912 522.826 161.048C520.01 156.099 518.602 150.296 518.602 143.64C518.602 137.155 519.967 131.48 522.698 126.616C525.429 121.667 529.226 117.827 534.09 115.096C539.039 112.28 544.629 110.872 550.858 110.872C555.381 110.872 559.477 111.64 563.146 113.176C566.815 114.627 569.973 116.76 572.618 119.576C575.263 122.307 577.269 125.677 578.634 129.688C579.999 133.613 580.682 138.008 580.682 142.872C580.682 144.493 580.17 145.731 579.146 146.584C578.122 147.352 576.629 147.736 574.666 147.736H534.474V137.752H566.73L564.682 139.544C564.682 136.045 564.17 133.144 563.146 130.84C562.122 128.451 560.629 126.659 558.666 125.464C556.789 124.269 554.442 123.672 551.626 123.672C548.469 123.672 545.781 124.397 543.562 125.848C541.343 127.299 539.637 129.389 538.442 132.12C537.247 134.851 536.65 138.136 536.65 141.976V143C536.65 149.485 538.143 154.264 541.13 157.336C544.202 160.408 548.725 161.944 554.698 161.944C556.746 161.944 559.093 161.688 561.738 161.176C564.383 160.664 566.858 159.853 569.162 158.744C571.125 157.805 572.874 157.507 574.41 157.848C575.946 158.104 577.141 158.787 577.994 159.896C578.847 161.005 579.317 162.285 579.402 163.736C579.573 165.187 579.274 166.637 578.506 168.088C577.738 169.453 576.458 170.605 574.666 171.544C571.765 173.165 568.479 174.36 564.81 175.128C561.226 175.981 557.727 176.408 554.314 176.408ZM616.655 176.152C614.095 176.152 611.919 175.555 610.127 174.36C608.335 173.08 606.884 171.075 605.775 168.344L587.727 123.672C586.788 121.283 586.49 119.192 586.831 117.4C587.172 115.523 588.068 114.029 589.519 112.92C591.055 111.725 593.146 111.128 595.791 111.128C598.01 111.128 599.844 111.683 601.295 112.792C602.746 113.816 603.983 115.821 605.007 118.808L619.087 156.312H616.143L630.735 117.144C631.418 115.096 632.399 113.603 633.679 112.664C635.044 111.64 636.794 111.128 638.927 111.128C641.06 111.128 642.767 111.64 644.047 112.664C645.412 113.688 646.479 115.181 647.247 117.144L661.583 156.312H659.151L673.103 118.296C674.127 115.565 675.45 113.688 677.071 112.664C678.692 111.64 680.442 111.128 682.319 111.128C684.708 111.128 686.543 111.725 687.823 112.92C689.188 114.115 689.956 115.651 690.127 117.528C690.383 119.405 690.042 121.453 689.103 123.672L671.183 168.344C670.159 170.989 668.708 172.952 666.831 174.232C665.039 175.512 662.863 176.152 660.303 176.152C657.828 176.152 655.652 175.512 653.775 174.232C651.983 172.952 650.532 170.989 649.423 168.344L634.063 128.408H642.383L627.407 168.216C626.383 170.861 624.975 172.867 623.183 174.232C621.391 175.512 619.215 176.152 616.655 176.152ZM706.476 148.248C704.343 148.248 702.508 147.523 700.972 146.072C699.521 144.621 698.796 142.829 698.796 140.696C698.796 138.477 699.521 136.643 700.972 135.192C702.508 133.741 704.343 133.016 706.476 133.016H732.844C734.977 133.016 736.769 133.741 738.22 135.192C739.756 136.643 740.524 138.477 740.524 140.696C740.524 142.829 739.756 144.621 738.22 146.072C736.769 147.523 734.977 148.248 732.844 148.248H706.476ZM766.947 176.152C763.704 176.152 761.23 175.256 759.523 173.464C757.816 171.672 756.963 169.155 756.963 165.912V94.872C756.963 91.544 757.816 89.0267 759.523 87.32C761.315 85.6133 763.832 84.76 767.075 84.76H798.179C808.248 84.76 816.014 87.32 821.475 92.44C826.936 97.4747 829.667 104.515 829.667 113.56C829.667 122.605 826.936 129.688 821.475 134.808C816.014 139.928 808.248 142.488 798.179 142.488H776.803V165.912C776.803 169.155 775.95 171.672 774.243 173.464C772.622 175.256 770.19 176.152 766.947 176.152ZM776.803 127.128H794.851C799.971 127.128 803.854 125.976 806.499 123.672C809.23 121.368 810.595 117.997 810.595 113.56C810.595 109.123 809.23 105.795 806.499 103.576C803.854 101.357 799.971 100.248 794.851 100.248H776.803V127.128ZM849.033 176.152C845.79 176.152 843.316 175.299 841.609 173.592C839.902 171.885 839.049 169.453 839.049 166.296V120.856C839.049 117.699 839.86 115.309 841.481 113.688C843.188 111.981 845.534 111.128 848.521 111.128C851.593 111.128 853.94 111.981 855.561 113.688C857.182 115.309 857.993 117.699 857.993 120.856V127.512H856.713C857.737 122.392 859.998 118.424 863.497 115.608C866.996 112.792 871.518 111.213 877.065 110.872C879.198 110.701 880.82 111.256 881.929 112.536C883.124 113.731 883.764 115.736 883.849 118.552C884.02 121.197 883.465 123.288 882.185 124.824C880.99 126.36 878.942 127.299 876.041 127.64L873.097 127.896C868.233 128.323 864.606 129.731 862.217 132.12C859.913 134.509 858.761 137.965 858.761 142.488V166.296C858.761 169.453 857.908 171.885 856.201 173.592C854.58 175.299 852.19 176.152 849.033 176.152ZM923.314 176.408C915.89 176.408 909.49 175.085 904.114 172.44C898.823 169.709 894.727 165.912 891.826 161.048C889.01 156.099 887.602 150.296 887.602 143.64C887.602 137.155 888.967 131.48 891.698 126.616C894.429 121.667 898.226 117.827 903.09 115.096C908.039 112.28 913.629 110.872 919.858 110.872C924.381 110.872 928.477 111.64 932.146 113.176C935.815 114.627 938.973 116.76 941.618 119.576C944.263 122.307 946.269 125.677 947.634 129.688C948.999 133.613 949.682 138.008 949.682 142.872C949.682 144.493 949.17 145.731 948.146 146.584C947.122 147.352 945.629 147.736 943.666 147.736H903.474V137.752H935.73L933.682 139.544C933.682 136.045 933.17 133.144 932.146 130.84C931.122 128.451 929.629 126.659 927.666 125.464C925.789 124.269 923.442 123.672 920.626 123.672C917.469 123.672 914.781 124.397 912.562 125.848C910.343 127.299 908.637 129.389 907.442 132.12C906.247 134.851 905.65 138.136 905.65 141.976V143C905.65 149.485 907.143 154.264 910.13 157.336C913.202 160.408 917.725 161.944 923.698 161.944C925.746 161.944 928.093 161.688 930.738 161.176C933.383 160.664 935.858 159.853 938.162 158.744C940.125 157.805 941.874 157.507 943.41 157.848C944.946 158.104 946.141 158.787 946.994 159.896C947.847 161.005 948.317 162.285 948.402 163.736C948.573 165.187 948.274 166.637 947.506 168.088C946.738 169.453 945.458 170.605 943.666 171.544C940.765 173.165 937.479 174.36 933.81 175.128C930.226 175.981 926.727 176.408 923.314 176.408ZM970.652 199.192C967.495 199.192 965.063 198.339 963.356 196.632C961.735 195.011 960.924 192.579 960.924 189.336V120.856C960.924 117.699 961.735 115.309 963.356 113.688C965.063 111.981 967.409 111.128 970.396 111.128C973.553 111.128 975.943 111.981 977.564 113.688C979.185 115.309 979.996 117.699 979.996 120.856V129.56L978.588 124.568C979.868 120.472 982.428 117.187 986.268 114.712C990.193 112.152 994.673 110.872 999.708 110.872C1005.17 110.872 1009.95 112.195 1014.04 114.84C1018.23 117.485 1021.47 121.24 1023.77 126.104C1026.08 130.968 1027.23 136.771 1027.23 143.512C1027.23 150.253 1026.08 156.099 1023.77 161.048C1021.47 165.997 1018.27 169.795 1014.17 172.44C1010.08 175.085 1005.25 176.408 999.708 176.408C994.759 176.408 990.364 175.213 986.524 172.824C982.684 170.349 980.081 167.149 978.716 163.224H980.252V189.336C980.252 192.579 979.399 195.011 977.692 196.632C976.071 198.339 973.724 199.192 970.652 199.192ZM993.948 161.944C996.679 161.944 999.068 161.261 1001.12 159.896C1003.25 158.531 1004.87 156.525 1005.98 153.88C1007.17 151.149 1007.77 147.693 1007.77 143.512C1007.77 137.283 1006.49 132.717 1003.93 129.816C1001.37 126.829 998.044 125.336 993.948 125.336C991.217 125.336 988.785 125.976 986.652 127.256C984.604 128.536 982.983 130.541 981.788 133.272C980.593 135.917 979.996 139.331 979.996 143.512C979.996 149.741 981.276 154.392 983.836 157.464C986.396 160.451 989.767 161.944 993.948 161.944Z" fill="black"/>
</g>
<defs>
<linearGradient id="paint0_linear_1_5" x1="393.205" y1="165.205" x2="-41.9999" y2="-267" gradientUnits="userSpaceOnUse">
<stop stop-color="#00293F"/>
<stop offset="0.21834" stop-color="#009AEB"/>
<stop offset="1" stop-color="white"/>
</linearGradient>
<linearGradient id="paint1_linear_1_5" x1="509.051" y1="16.9495" x2="359.95" y2="166.056" gradientUnits="userSpaceOnUse">
<stop stop-color="#007ABA"/>
<stop offset="1" stop-color="#004265"/>
</linearGradient>
<clipPath id="clip0_1_5">
<rect width="1032" height="203" fill="white"/>
</clipPath>
</defs>
</svg>
